<svg width="24" height="32" viewBox="0 0 24 32" fill="none" xmlns="http://www.w3.org/2000/svg">
<path d="M16.6542 20.268C16.6542 20.268 19.7129 23.3304 19.721 23.3348C20.6963 24.3178 20.444 26.0451 19.519 26.985L15.2524 31.4311C13.6043 33.0747 11.4022 30.7933 13.002 29.202L15.7086 26.4933L13.0587 23.8643L16.6542 20.268ZM7.14121 20.268C7.14121 20.268 4.0869 23.3304 4.0869 23.3348C3.10354 24.3178 3.35582 26.0451 4.27038 26.985L8.5559 31.4311C10.1975 33.0747 12.4 30.7933 10.8083 29.202L8.10607 26.4933L10.7355 23.8643L7.14121 20.268ZM12.0041 8.87563C14.4541 8.87563 16.4417 6.89321 16.4417 4.43158C16.4417 1.98443 14.4545 0 12.0041 0C9.55174 0 7.56006 1.98443 7.56006 4.43158C7.56006 6.8912 9.54973 8.87563 12.0041 8.87563ZM16.8127 18.4908L16.8775 15.4635L20.5671 18.9052C20.8673 19.1909 21.2527 19.3261 21.6382 19.3261C22.0546 19.3261 22.4779 19.1595 22.7861 18.8304C23.378 18.1931 23.3446 17.2012 22.7109 16.6094C22.7109 16.6094 18.4817 12.0132 17.8733 11.4777C16.7483 10.4798 15.0983 9.91412 12.421 9.91412H11.5812C8.90193 9.91412 7.25387 10.4798 6.12445 11.4757C5.5185 12.0112 1.2889 16.6094 1.2889 16.6094C0.657599 17.2008 0.620179 18.1931 1.21366 18.8304C1.52227 19.1595 1.94273 19.3261 2.36199 19.3261C2.74745 19.3261 3.13291 19.1909 3.43508 18.9052L7.1231 15.4655L7.18748 18.4924H16.8131V18.4908H16.8127Z" fill="#010002"/>
</svg>
