<svg width="11" height="14" viewBox="0 0 11 14" fill="none" xmlns="http://www.w3.org/2000/svg">
<path d="M1.97059 2.27907C1.4183 2.27907 0.970588 2.72678 0.970588 3.27907V13C0.970588 13.5523 1.4183 14 1.97059 14H9.35294C9.90523 14 10.3529 13.5523 10.3529 13V3.27907C10.3529 2.72679 9.90523 2.27907 9.35294 2.27907H1.97059Z" fill="black"/>
<path d="M0.212629 0.660393C0.107937 0.97646 0.343277 1.30233 0.676231 1.30233H10.3238C10.6567 1.30233 10.8921 0.97646 10.7874 0.660393C10.7212 0.460522 10.5343 0.325581 10.3238 0.325581H7.34714C7.20025 0.325581 7.05942 0.266988 6.95588 0.162791C6.85234 0.0585931 6.71152 0 6.56462 0H4.43538C4.28849 0 4.14766 0.0585931 4.04412 0.162791C3.94058 0.266988 3.79975 0.325581 3.65286 0.325581H0.676231C0.46568 0.325581 0.278833 0.460522 0.212629 0.660393Z" fill="black"/>
</svg>
