<svg width="29" height="30" viewBox="0 0 29 30" fill="none" xmlns="http://www.w3.org/2000/svg">
<path d="M9.86906 22.9219C9.86906 22.9219 8.91569 19.5469 7.25 21.9806L7.78288 26.25H22.2512L22.784 21.9806C21.1202 19.5469 20.165 22.9219 20.165 22.9219H9.86906ZM8.91569 19.4794C8.91569 19.4794 10.7581 20.3288 10.7354 21.9816H19.3004C19.2787 20.3288 21.1202 19.4794 21.1202 19.4794C21.1202 19.4794 20.8537 16.1512 20.5202 12.2475C20.165 8.27625 15.0175 8.78156 15.0175 8.78156C15.0175 8.78156 9.86906 8.27625 9.51472 12.2475C9.18212 16.1503 8.91478 19.4794 8.91478 19.4794H8.91569ZM11.6009 5.04094C11.6009 6.73969 10.9357 8.18531 15.0175 8.18531C19.0992 8.18531 18.434 6.73781 18.434 5.04094C18.434 3.31969 11.6 3.31969 11.6 5.04094H11.6009Z" fill="#EB5757"/>
<rect x="3.23407" y="25.1226" width="30.9748" height="2.46218" transform="rotate(-49 3.23407 25.1226)" fill="#EB5757" stroke="white"/>
</svg>
