<svg width="15" height="15" viewBox="0 0 15 15" fill="none" xmlns="http://www.w3.org/2000/svg">
<path d="M13.6682 3.66783C13.5457 2.47046 13.3506 1.53818 13.0419 1.17174C11.7693 -0.334962 2.85453 -0.445225 1.84236 1.17174C1.59476 1.56789 1.42112 2.49687 1.30458 3.66981C0.928565 3.71405 0.635742 4.03064 0.635742 4.41821V5.88497C0.635742 6.21113 0.842402 6.48613 1.13093 6.59342C1.0626 8.90365 1.11806 11.3139 1.2204 12.5126C1.2204 13.438 1.84203 13.2844 1.84203 13.2844H2.4247V14.2834C2.4247 14.6796 2.83307 15.0001 3.33618 15.0001C3.83996 15.0001 4.24833 14.6796 4.24833 14.2834V13.2844H11.0272V14.2834C11.0272 14.6796 11.4352 15.0001 11.939 15.0001C12.4421 15.0001 12.8505 14.6796 12.8505 14.2834V13.2844H13.0419C13.0419 13.2844 13.7735 13.3848 13.8204 12.949C13.8204 11.7536 13.8956 9.10437 13.8336 6.60366C14.1403 6.50759 14.3641 6.225 14.3641 5.88497V4.41821C14.3644 4.0214 14.0574 3.69953 13.6682 3.66783ZM4.01955 1.38665H10.8647V2.42226H4.01955V1.38665ZM4.11727 12.1049C3.57982 12.1049 3.14438 11.6691 3.14438 11.1317C3.14438 10.5946 3.57982 10.1591 4.11727 10.1591C4.65471 10.1591 5.09048 10.5946 5.09048 11.1317C5.09048 11.6691 4.65504 12.1049 4.11727 12.1049ZM10.8281 12.1049C10.291 12.1049 9.85455 11.6691 9.85455 11.1317C9.85455 10.5946 10.2907 10.1591 10.8281 10.1591C11.3655 10.1591 11.801 10.5946 11.801 11.1317C11.8013 11.6691 11.3655 12.1049 10.8281 12.1049ZM12.0651 7.84626H2.81921V2.99668H12.0651V7.84626Z" fill="#373737"/>
</svg>
