<svg width="25" height="25" viewBox="0 0 25 25" fill="none" xmlns="http://www.w3.org/2000/svg">
<g clip-path="url(#clip0)">
<path d="M22.7806 6.11305C22.5764 4.11743 22.2512 2.56363 21.7368 1.9529C19.6157 -0.558271 4.75779 -0.742041 3.07084 1.9529C2.65818 2.61315 2.36877 4.16145 2.17454 6.11636C1.54785 6.19008 1.05981 6.71774 1.05981 7.36369V9.80828C1.05981 10.3519 1.40425 10.8102 1.88513 10.989C1.77124 14.8394 1.86367 18.8565 2.03424 20.8543C2.03424 22.3966 3.07029 22.1407 3.07029 22.1407H4.04142V23.8057C4.04142 24.4659 4.72203 25.0002 5.56055 25.0002C6.40018 25.0002 7.08079 24.4659 7.08079 23.8057V22.1407H18.3788V23.8057C18.3788 24.4659 19.0589 25.0002 19.8985 25.0002C20.7371 25.0002 21.4177 24.4659 21.4177 23.8057V22.1407H21.7368C21.7368 22.1407 22.9561 22.308 23.0342 21.5817C23.0342 19.5894 23.1596 15.174 23.0562 11.0061C23.5674 10.846 23.9404 10.375 23.9404 9.80828V7.36369C23.9409 6.70233 23.4293 6.16587 22.7806 6.11305ZM6.69949 2.31109H18.1081V4.0371H6.69949V2.31109ZM6.86235 20.1748C5.96661 20.1748 5.24088 19.4486 5.24088 18.5528C5.24088 17.6576 5.96661 16.9319 6.86235 16.9319C7.7581 16.9319 8.48438 17.6576 8.48438 18.5528C8.48438 19.4486 7.75865 20.1748 6.86235 20.1748ZM18.0471 20.1748C17.1519 20.1748 16.4245 19.4486 16.4245 18.5528C16.4245 17.6576 17.1513 16.9319 18.0471 16.9319C18.9428 16.9319 19.6685 17.6576 19.6685 18.5528C19.6691 19.4486 18.9428 20.1748 18.0471 20.1748ZM20.1087 13.0771H4.69892V4.99447H20.1087V13.0771Z" fill="#373737"/>
</g>
<defs>
<clipPath id="clip0">
<rect width="25" height="25" fill="white"/>
</clipPath>
</defs>
</svg>
