<svg width="53" height="34" viewBox="0 0 53 34" fill="none" xmlns="http://www.w3.org/2000/svg">
<path d="M11.25 11.5C9.73122 11.5 8.5 10.2688 8.5 8.75C8.5 7.23122 9.73122 6 11.25 6H13.25C14.7688 6 16 7.23122 16 8.75C16 10.2688 14.7688 11.5 13.25 11.5H11.25Z" fill="black"/>
<path d="M8 23H46.5M8 29H17.5M16 8.75V8.75C16 7.23122 14.7688 6 13.25 6H11.25C9.73122 6 8.5 7.23122 8.5 8.75V8.75C8.5 10.2688 9.73122 11.5 11.25 11.5H13.25C14.7688 11.5 16 10.2688 16 8.75ZM4 33H49C50.6569 33 52 31.6569 52 30V4C52 2.34315 50.6569 1 49 1H4C2.34315 1 1 2.34315 1 4V30C1 31.6569 2.34315 33 4 33Z" stroke="black" stroke-width="2"/>
</svg>
