<svg width="37" height="31" viewBox="0 0 37 31" fill="none" xmlns="http://www.w3.org/2000/svg">
<path d="M2 2V29H35.5V2M2 2H35.5M2 2L19.5 12.5L35.5 2" stroke="#294367" stroke-width="3" stroke-linecap="round" stroke-linejoin="round"/>
<path d="M8.83657 26.088C8.2059 26.088 7.63757 25.9597 7.13157 25.703C6.6329 25.439 6.24057 25.076 5.95457 24.614C5.6759 24.152 5.53657 23.6277 5.53657 23.041C5.53657 22.4543 5.6759 21.93 5.95457 21.468C6.24057 21.006 6.6329 20.6467 7.13157 20.39C7.63757 20.126 8.2059 19.994 8.83657 19.994C9.4599 19.994 10.0026 20.126 10.4646 20.39C10.9339 20.6467 11.2749 21.017 11.4876 21.501L10.1566 22.216C9.84857 21.6733 9.4049 21.402 8.82557 21.402C8.37824 21.402 8.0079 21.5487 7.71457 21.842C7.42124 22.1353 7.27457 22.535 7.27457 23.041C7.27457 23.547 7.42124 23.9467 7.71457 24.24C8.0079 24.5333 8.37824 24.68 8.82557 24.68C9.41224 24.68 9.8559 24.4087 10.1566 23.866L11.4876 24.592C11.2749 25.0613 10.9339 25.428 10.4646 25.692C10.0026 25.956 9.4599 26.088 8.83657 26.088ZM16.0296 19.994C16.763 19.994 17.3533 20.214 17.8006 20.654C18.2553 21.094 18.4826 21.7467 18.4826 22.612V26H16.7666V22.876C16.7666 22.4067 16.664 22.0583 16.4586 21.831C16.2533 21.5963 15.9563 21.479 15.5676 21.479C15.135 21.479 14.7903 21.6147 14.5336 21.886C14.277 22.15 14.1486 22.546 14.1486 23.074V26H12.4326V17.838H14.1486V20.698C14.376 20.4707 14.651 20.2983 14.9736 20.181C15.2963 20.0563 15.6483 19.994 16.0296 19.994ZM22.4251 19.994C23.3418 19.994 24.0458 20.214 24.5371 20.654C25.0284 21.0867 25.2741 21.743 25.2741 22.623V26H23.6681V25.263C23.3454 25.813 22.7441 26.088 21.8641 26.088C21.4094 26.088 21.0134 26.011 20.6761 25.857C20.3461 25.703 20.0931 25.4903 19.9171 25.219C19.7411 24.9477 19.6531 24.6397 19.6531 24.295C19.6531 23.745 19.8584 23.3123 20.2691 22.997C20.6871 22.6817 21.3288 22.524 22.1941 22.524H23.5581C23.5581 22.15 23.4444 21.864 23.2171 21.666C22.9898 21.4607 22.6488 21.358 22.1941 21.358C21.8788 21.358 21.5671 21.4093 21.2591 21.512C20.9584 21.6073 20.7018 21.7393 20.4891 21.908L19.8731 20.709C20.1958 20.4817 20.5808 20.3057 21.0281 20.181C21.4828 20.0563 21.9484 19.994 22.4251 19.994ZM22.2931 24.933C22.5864 24.933 22.8468 24.867 23.0741 24.735C23.3014 24.5957 23.4628 24.394 23.5581 24.13V23.525H22.3811C21.6771 23.525 21.3251 23.756 21.3251 24.218C21.3251 24.438 21.4094 24.614 21.5781 24.746C21.7541 24.8707 21.9924 24.933 22.2931 24.933ZM30.6442 25.714C30.4755 25.8387 30.2665 25.934 30.0172 26C29.7752 26.0587 29.5185 26.088 29.2472 26.088C28.5432 26.088 27.9968 25.9083 27.6082 25.549C27.2268 25.1897 27.0362 24.6617 27.0362 23.965V21.534H26.1232V20.214H27.0362V18.773H28.7522V20.214H30.2262V21.534H28.7522V23.943C28.7522 24.1923 28.8145 24.3867 28.9392 24.526C29.0712 24.658 29.2545 24.724 29.4892 24.724C29.7605 24.724 29.9915 24.6507 30.1822 24.504L30.6442 25.714Z" fill="#294367"/>
</svg>
