<svg width="25" height="11" viewBox="0 0 25 11" fill="none" xmlns="http://www.w3.org/2000/svg">
<path d="M14.1127 0.313011C14.0711 0.373661 14.0257 0.398961 13.9721 0.417711C13.7975 0.478611 13.6374 0.506662 13.433 0.531762C13.1207 0.570162 12.7843 0.633612 12.4768 0.700512C12.0834 0.786062 11.6974 0.901862 11.3143 1.02551C10.9672 1.13751 10.6244 1.26351 10.2877 1.40361C9.96741 1.53691 9.65306 1.68671 9.34396 1.84421C9.08066 1.97836 8.82256 2.12221 8.56896 2.27391C8.30866 2.42957 8.05301 2.59392 7.80336 2.76612C7.51751 2.96327 7.24121 3.17177 6.96586 3.38332C6.80621 3.50597 6.64521 3.62857 6.49396 3.76142C6.39191 3.85112 6.40171 3.86537 6.26896 3.95517C6.16721 4.02397 6.04291 4.01417 5.92836 3.95987C5.81376 3.90557 5.62366 3.79267 5.62366 3.79267C5.62366 3.79267 5.85186 3.62207 6.03146 3.49737C6.02816 3.49787 6.02356 3.50007 6.02051 3.50047C5.90636 3.51622 5.75946 3.47367 5.64551 3.45672C5.57631 3.44642 5.50441 3.44347 5.43456 3.44732C5.2826 3.45577 5.1338 3.49117 4.98455 3.52077C4.24905 3.66667 3.5139 3.82377 2.79395 4.03327C2.27525 4.18422 1.76185 4.35737 1.26425 4.56767C1.09875 4.63762 0.931046 4.70812 0.782995 4.80987C0.646495 4.90372 0.518945 5.01457 0.415795 5.14427C0.318445 5.26667 0.251244 5.41217 0.184544 5.55367C0.122344 5.68572 0.057144 5.81842 0.0282939 5.96147C-0.0166062 6.18417 0.00504389 6.41557 0.00639389 6.64272C0.00789389 6.88747 0.0151939 7.13352 0.039194 7.37712C0.063794 7.62687 0.100144 7.84357 0.111094 8.09433C0.113394 8.14678 0.112494 8.23242 0.0907941 8.28027C0.074444 8.31627 0.070994 8.32372 0.059544 8.36153C0.049244 8.39563 0.065844 8.43347 0.079844 8.46622C0.113394 8.54463 0.166394 8.61532 0.226744 8.67562C0.256894 8.70578 0.300444 8.71978 0.331445 8.74908C0.376595 8.79183 0.402845 8.85223 0.447045 8.89598C0.540945 8.98878 0.643945 9.07573 0.761095 9.13658C0.926796 9.22263 1.11335 9.26428 1.2955 9.30533C1.49165 9.34953 1.69355 9.37163 1.89395 9.38813C2.03325 9.39963 2.15155 9.41458 2.3127 9.39908C2.42795 9.39693 2.40965 9.39793 2.51425 9.39598C2.42885 9.15118 2.38145 8.88713 2.38145 8.61318C2.38145 7.30287 3.44455 6.24127 4.7549 6.24127C6.06521 6.24127 7.12681 7.30282 7.12681 8.61318C7.12681 8.85453 7.09066 9.08753 7.02371 9.30693C7.09866 9.30563 7.08416 9.30673 7.16431 9.30538C12.3709 9.24198 15.0592 9.15473 19.0065 9.09598C19.0759 9.09493 19.1428 9.09268 19.2112 9.09128C19.1707 8.91748 19.1487 8.73678 19.1487 8.55068C19.1487 7.24037 20.2103 6.17877 21.5206 6.17877C22.831 6.17877 23.8941 7.24032 23.8941 8.55068C23.8941 8.63258 23.8897 8.71313 23.8816 8.79288C23.9531 8.78057 24.022 8.75863 24.0878 8.72883C24.2255 8.66643 24.3491 8.57308 24.4659 8.47728C24.592 8.37393 24.7061 8.25657 24.8112 8.13197C24.8775 8.05347 24.9622 7.97947 24.9893 7.88042C25.0236 7.75537 24.9648 7.78387 24.9581 7.49137C24.9475 7.03027 24.9585 6.56867 24.9268 6.10857C24.9143 5.92617 24.9106 5.71847 24.8643 5.56327C24.8481 5.50877 24.796 5.45547 24.7596 5.41172C24.7262 5.37142 24.6604 5.36382 24.6549 5.31172C24.634 5.11357 24.6318 4.90657 24.6221 4.70392C24.6159 4.57317 24.6234 4.44202 24.6127 4.31172C24.6114 4.32047 24.6091 4.32972 24.6065 4.33827C24.5932 4.38097 24.5446 4.40342 24.5237 4.44297C24.5015 4.48497 24.4894 4.53207 24.4815 4.57892C24.466 4.67027 24.4664 4.76452 24.4705 4.85702C24.4748 4.95377 24.5005 5.04797 24.508 5.14452C24.5128 5.20547 24.5376 5.27302 24.5127 5.32892C24.4941 5.37082 24.4504 5.40047 24.408 5.41797C24.3254 5.45207 24.2295 5.44942 24.1408 5.43827C24.0493 5.42682 23.9575 5.39662 23.8783 5.34922C23.7225 5.25587 23.6076 5.10652 23.4799 4.97732C23.2704 4.76542 23.0581 4.55392 22.8783 4.31637C22.8324 4.25572 22.771 4.19757 22.758 4.12262C22.7467 4.05747 22.7604 3.98282 22.7986 3.92887C22.8721 3.82527 23.0091 3.78532 23.1236 3.73042C23.2591 3.66547 23.402 3.61012 23.5486 3.57732C23.6548 3.55357 23.7648 3.54682 23.8736 3.54607C23.9788 3.54537 24.0866 3.54382 24.1877 3.57262C24.2801 3.59892 24.3759 3.63602 24.4439 3.70387C24.453 3.71287 24.4615 3.72322 24.4689 3.73357C24.4017 3.57397 24.301 3.43342 24.2017 3.29137C24.1825 3.28432 23.9638 3.20317 23.8423 3.17417C23.7546 3.15322 23.5908 3.15387 23.5908 3.15387C23.5908 3.15387 23.3788 2.84657 23.2611 2.70232C23.118 2.52696 22.9669 2.35866 22.8048 2.20076C22.6283 2.02876 22.4411 1.86576 22.2439 1.71796C22.0489 1.57181 21.6314 1.31951 21.6314 1.31951L21.9751 1.14921C21.924 1.09266 21.9943 0.946012 21.9407 0.880462C21.9001 0.830712 21.8321 0.830712 21.747 0.828912C21.5165 0.823962 21.3005 0.811512 21.0704 0.796112C20.7756 0.776362 20.4837 0.730012 20.1907 0.691412C19.9003 0.653112 19.6116 0.596812 19.3204 0.564862C18.718 0.498762 18.1132 0.458011 17.5079 0.428911C16.8449 0.397061 16.1792 0.407711 15.5157 0.386711C15.2676 0.378861 15.0199 0.368461 14.772 0.355461C14.5519 0.343711 14.3331 0.307811 14.1127 0.313011ZM15.8408 0.905212C15.8408 0.905212 16.3264 0.905912 16.5689 0.916162C16.9188 0.930912 17.2686 0.958612 17.6174 0.989612C17.9743 1.02136 18.3313 1.05481 18.6861 1.10521C18.9443 1.14191 19.2129 1.18771 19.4564 1.24116C19.5148 1.25396 19.5964 1.29086 19.5986 1.35056C19.6124 1.71786 19.6146 2.06746 19.6189 2.42556C19.6235 2.80802 19.6236 3.57247 19.6236 3.57247C19.6236 3.57247 18.3278 3.58282 17.6799 3.59437C16.9759 3.60692 15.5689 3.64592 15.5689 3.64592L15.8408 0.905212ZM14.6986 0.911462C14.6986 0.911462 14.5319 1.83626 14.4267 2.29426C14.316 2.77652 14.0486 3.73022 14.0486 3.73022C14.0486 3.73022 13.2733 3.76337 12.8861 3.79272C12.1687 3.84707 11.4526 3.92082 10.7377 4.00212C10.4682 4.03277 9.97206 4.07087 9.97206 4.07087C9.97206 4.07087 9.97456 3.87427 9.94706 3.78182C9.91941 3.68897 9.81111 3.52557 9.81111 3.52557L10.2236 1.86461C10.2236 1.86461 10.6878 1.66286 10.9267 1.58181C11.2975 1.45606 11.677 1.35826 12.058 1.26776C12.4425 1.17636 12.8311 1.09511 13.222 1.03651C13.5276 0.990713 13.8359 0.967212 14.1439 0.942762C14.3288 0.928012 14.6986 0.911462 14.6986 0.911462ZM20.2267 1.43961C20.2267 1.43961 20.5663 1.52186 20.7298 1.58181C20.9588 1.66571 21.185 1.76176 21.3954 1.88491C21.6586 2.03901 21.9052 2.22441 22.1345 2.42551C22.2905 2.56237 22.4541 2.69957 22.5642 2.87552C22.6615 3.03112 22.6117 3.02412 22.4689 3.09112C22.1716 3.23067 21.8405 3.28447 21.5204 3.35832C21.2143 3.42897 20.5939 3.52552 20.5939 3.52552L20.2267 1.43961ZM9.98296 1.96926C9.87191 2.42357 9.71216 2.91367 9.60016 3.36772C9.60016 3.36772 9.42736 3.32797 9.34391 3.33647C9.27226 3.34377 9.14101 3.38667 9.04546 3.43647C8.96211 3.47992 8.86186 3.54402 8.78921 3.60367C8.71091 3.66797 8.62106 3.78262 8.58451 3.87712C8.53141 4.01427 8.58451 4.27402 8.58451 4.27402C8.58451 4.27402 8.37701 4.29282 8.24391 4.30682C8.11151 4.32077 7.84546 4.33807 7.84546 4.33807C7.84546 4.33807 7.97466 3.80112 8.06576 3.54117C8.12736 3.36542 8.28606 3.02712 8.28606 3.02712C8.28606 3.02712 8.48076 2.83742 8.58916 2.75522C8.79696 2.59782 9.02321 2.46476 9.25011 2.33646C9.48811 2.20191 9.98296 1.96926 9.98296 1.96926ZM3.2142 4.47242C3.2513 4.47147 3.2873 4.47572 3.3189 4.49432C3.3499 4.51257 3.3733 4.55377 3.37045 4.58962C3.3655 4.65162 3.29855 4.69227 3.25485 4.73652C3.10985 4.88317 2.93505 4.99577 2.7736 5.12402C2.54765 5.30352 2.33125 5.49647 2.09235 5.65842C1.9887 5.72867 1.8839 5.80017 1.76735 5.84592C1.664 5.88647 1.5522 5.90332 1.44235 5.91937C1.23795 5.94917 1.0317 5.96437 0.825146 5.96157C0.751445 5.96057 0.666895 5.98097 0.604845 5.94127C0.563945 5.91512 0.562295 5.85212 0.531395 5.81472C0.484145 5.75742 0.422645 5.71157 0.362645 5.66782C0.329745 5.64382 0.264994 5.64542 0.257944 5.60532C0.236944 5.48547 0.405695 5.41102 0.489195 5.32252C0.567245 5.23982 0.634745 5.13407 0.740745 5.09282C0.789595 5.07382 0.845996 5.10487 0.896996 5.09282C1.02625 5.06232 1.1311 4.96672 1.25325 4.91472C1.40675 4.84937 1.5667 4.79822 1.7251 4.74597C1.8846 4.69337 2.0444 4.63742 2.2079 4.59907C2.3527 4.56512 2.49935 4.54407 2.64695 4.52562C2.77215 4.51002 2.899 4.49962 3.0251 4.49437C3.08625 4.49177 3.1524 4.47402 3.2142 4.47242ZM21.5205 6.47552C20.3746 6.47552 19.4455 7.40467 19.4455 8.55053C19.4455 9.69638 20.3746 10.6255 21.5205 10.6255C22.6663 10.6255 23.5955 9.69638 23.5955 8.55053C23.5955 7.40467 22.6664 6.47552 21.5205 6.47552ZM4.75485 6.53802C3.609 6.53802 2.67985 7.46717 2.67985 8.61303C2.67985 9.75888 3.609 10.688 4.75485 10.688C5.90071 10.688 6.82831 9.75888 6.82831 8.61303C6.82831 7.46717 5.90071 6.53802 4.75485 6.53802ZM21.5205 7.04117C22.3539 7.04117 23.0299 7.71712 23.0299 8.55058C23.0299 9.38398 22.3539 10.06 21.5205 10.06C20.6871 10.06 20.0127 9.38398 20.0127 8.55058C20.0127 7.71712 20.6871 7.04117 21.5205 7.04117ZM4.75485 7.10367C5.58826 7.10367 6.26266 7.77962 6.26266 8.61308C6.26266 9.44648 5.58826 10.1225 4.75485 10.1225C3.92145 10.1225 3.24545 9.44648 3.24545 8.61308C3.24545 7.77962 3.92145 7.10367 4.75485 7.10367Z" fill="#373737"/>
</svg>
