<svg width="37" height="41" viewBox="0 0 37 41" fill="none" xmlns="http://www.w3.org/2000/svg">
<g clip-path="url(#clip0)">
<path d="M36.9724 24.8304C36.7185 23.2569 36.1669 21.6698 35.3433 20.3012C35.0222 21.4269 34.1501 22.3221 33.0364 22.6703C33.2003 23.0214 33.3425 23.3831 33.4668 23.7513C32.9182 23.7638 32.3657 23.7618 31.8191 23.7408C30.9495 22.538 29.13 21.8853 27.6457 23.04C27.276 22.2419 26.9984 21.4249 26.8497 20.5672C27.5089 20.6068 28.1677 20.6574 28.8219 20.7471C28.6315 20.3193 28.5258 19.8469 28.5258 19.3489C28.5258 18.7147 28.6982 18.1211 28.9972 17.6086C27.7213 17.4573 26.4314 17.4127 25.1514 17.308C24.2742 17.2359 23.602 18.08 23.5769 18.883C23.5013 21.1043 24.144 23.1737 25.1494 25.1094C24.141 25.9199 23.2027 26.6488 22.1707 27.4864C20.8567 26.1729 19.3358 25.0413 17.8184 24.0163C17.0274 23.4823 16.1032 23.7979 15.4314 24.3249C13.3725 25.94 11.3125 27.5571 9.25361 29.1736C8.94151 29.4191 8.74664 29.6931 8.64795 29.9752C8.06685 29.9752 7.48624 29.9752 6.90563 29.9752C4.36479 29.9752 4.36479 33.9132 6.90563 33.9132C11.8936 33.9132 16.8816 33.9132 21.8697 33.9132C23.0599 33.9132 23.7813 33.3125 24.1771 32.9714C26.9233 30.5949 28.6831 29.4006 31.4304 27.0236C31.495 26.9684 31.5516 26.9118 31.6067 26.8557C32.8907 26.9143 34.1836 26.8823 35.4561 26.8227C36.5552 26.7746 37.1378 25.8633 36.9724 24.8304ZM14.5612 29.9752C15.3362 29.3665 16.1122 28.7589 16.8862 28.1517C17.6666 28.7058 18.4421 29.3084 19.1405 29.9752C17.6145 29.9752 16.0876 29.9752 14.5612 29.9752Z" fill="#373737"/>
<path d="M32.0856 22.2166C33.7758 22.2166 35.1494 20.8415 35.1494 19.1517C35.1494 17.4625 33.7743 16.0879 32.0856 16.0879C30.3968 16.0879 29.0222 17.463 29.0222 19.1517C29.0217 20.8415 30.3968 22.2166 32.0856 22.2166Z" fill="#373737"/>
</g>
<g clip-path="url(#clip1)">
<path d="M0.576385 16.7175C0.830369 18.291 1.38192 19.878 2.20549 21.2466C2.5266 20.121 3.39877 19.2258 4.51239 18.8776C4.34858 18.5264 4.2063 18.1647 4.08207 17.7965C4.63061 17.784 5.18317 17.786 5.72971 17.8071C6.59937 19.0099 8.41883 19.6626 9.90316 18.5079C10.2729 19.3059 10.5504 20.123 10.6992 20.9806C10.0399 20.941 9.38117 20.8904 8.72692 20.8008C8.91728 21.2286 9.02298 21.701 9.02298 22.1989C9.02298 22.8331 8.85066 23.4268 8.55159 23.9392C9.82752 24.0905 11.1175 24.1351 12.3974 24.2398C13.2746 24.312 13.9469 23.4678 13.9719 22.6648C14.0476 20.4436 13.4048 18.3741 12.3994 16.4385C13.4078 15.6279 14.3461 14.899 15.3781 14.0614C16.6921 15.3749 18.213 16.5066 19.7304 17.5315C20.5214 18.0656 21.4457 17.75 22.1174 17.2229C24.1764 15.6079 26.2363 13.9908 28.2952 12.3742C28.6073 12.1287 28.8022 11.8547 28.9009 11.5727C29.482 11.5727 30.0626 11.5727 30.6432 11.5727C33.184 11.5727 33.184 7.63467 30.6432 7.63467C25.6552 7.63467 20.6672 7.63467 15.6792 7.63467C14.4889 7.63467 13.7675 8.23532 13.3718 8.57647C10.6255 10.953 8.86569 12.1473 6.11845 14.5243C6.05383 14.5794 5.99722 14.636 5.94211 14.6921C4.65817 14.6335 3.3652 14.6656 2.09278 14.7252C0.99368 14.7733 0.41107 15.6845 0.576385 16.7175ZM22.9876 11.5727C22.2126 12.1813 21.4366 12.789 20.6627 13.3962C19.8822 12.8421 19.1067 12.2394 18.4084 11.5727C19.9343 11.5727 21.4612 11.5727 22.9876 11.5727Z" fill="#373737"/>
<path d="M5.46327 19.3313C3.77305 19.3313 2.39943 20.7064 2.39943 22.3961C2.39943 24.0853 3.77455 25.46 5.46327 25.46C7.15199 25.46 8.52661 24.0848 8.52661 22.3961C8.52711 20.7064 7.15199 19.3313 5.46327 19.3313Z" fill="#373737"/>
</g>
<defs>
<clipPath id="clip0">
<rect width="32" height="32" fill="white" transform="translate(5 9)"/>
</clipPath>
<clipPath id="clip1">
<rect width="32" height="32" fill="white" transform="translate(32.5488 32.5479) rotate(-180)"/>
</clipPath>
</defs>
</svg>
