<svg width="33" height="33" viewBox="0 0 33 33" fill="none" xmlns="http://www.w3.org/2000/svg">
<path fill-rule="evenodd" clip-rule="evenodd" d="M23.5254 6.89749C26.3865 7.56141 27.4809 9.23442 28.8531 11.5371H23.5254V6.89749ZM6.80484 11.7305C7.36503 11.7305 7.77164 12.0009 7.77164 12.6328C7.77164 13.1658 7.34035 13.5981 6.80761 13.5996H0.966797C0.432793 13.5996 0 14.0327 0 14.5664C0 15.1004 0.432793 15.5332 0.966797 15.5332H9.66797C10.207 15.5332 10.6385 15.9657 10.6385 16.5C10.6385 17.034 10.2057 17.4668 9.67175 17.4668H0.966797C0.432793 17.4668 0 17.8996 0 18.4336C0 18.9676 0.432793 19.4004 0.966797 19.4004H3.09375V22.3008C3.09375 22.8348 3.52654 23.2676 4.06055 23.2676H6.00396C6.3504 24.9741 7.85825 26.2324 9.63574 26.2324C11.4132 26.2324 12.9211 24.9741 13.2675 23.2676H23.084C23.4305 24.9741 24.9383 26.2324 26.7158 26.2324C28.4933 26.2324 30.0012 24.9741 30.3476 23.2676H32.0332C32.5672 23.2676 33 22.8348 33 22.3008V16.5C33 13.6633 30.008 13.475 30.0052 13.4707H22.5586C22.0246 13.4707 21.5918 13.0379 21.5918 12.5039V6.70312H4.06055C3.52654 6.70312 3.09375 7.13592 3.09375 7.66992V9.79688H1.93359C1.39959 9.79688 0.966797 10.2297 0.966797 10.7637C0.966797 11.2977 1.39959 11.7305 1.93359 11.7305H6.80484ZM27.9691 21.2731C28.6612 21.9652 28.6612 23.0878 27.9691 23.7799C26.8558 24.8933 24.9434 24.1012 24.9434 22.5264C24.9434 20.9518 26.8558 20.1597 27.9691 21.2731ZM10.8891 21.2731C11.5812 21.9652 11.5812 23.0878 10.8891 23.7799C9.77573 24.8933 7.86328 24.1012 7.86328 22.5264C7.86328 20.9518 9.77573 20.1597 10.8891 21.2731Z" fill="#373737"/>
</svg>
