<svg width="34" height="28" viewBox="0 0 34 28" fill="none" xmlns="http://www.w3.org/2000/svg">
<path d="M8.48002 19.6976C8.02839 20.7693 7.92609 21.6202 8.0209 22.2921C8.0209 22.2921 0.777344 20.3646 0.777344 15.1731C0.779839 15.1756 4.34049 20.4382 8.48002 19.6976ZM25.2627 1.46472C24.6639 0.572084 24.0002 0.670177 24.0002 0.670177C24.0002 0.670177 21.5549 3.26962 22.4531 3.17153C22.5729 3.15927 22.7276 3.17888 22.9023 3.22057C24.0501 3.49523 26.1585 4.7361 26.0961 4.2015C25.9314 2.82085 25.6071 1.97725 25.2627 1.46472ZM22.4032 4.88569C22.2885 5.90094 22.0988 7.07069 21.9291 8.03935C21.9291 8.03935 23.2691 10.1606 27.6781 10.0331C27.5309 9.3121 27.6606 8.58867 28.4416 7.75734C28.4416 7.75734 30.5875 7.235 31.9349 7.18595C33.2823 7.1369 32.8831 5.37615 32.8831 5.37615C32.8831 5.37615 34.2804 3.95381 33.5817 3.07098H29.7391C29.7391 3.07098 29.1403 1.10914 26.5952 1.25628C26.1086 1.28325 25.6645 1.35437 25.2627 1.46227C25.6071 1.97726 25.9314 2.8184 26.0961 4.19904C26.1585 4.73365 24.0501 3.49278 22.9023 3.21812C22.6428 3.69387 22.4756 4.25299 22.4032 4.88569ZM26.5453 23.7684L26.0961 19.5456C25.6195 20.0066 25.113 20.4333 24.594 20.8281C24.3919 22.3951 24.1748 24.0137 24.1748 24.0137C24.1748 24.0137 24.9384 24.8695 25.4324 25.6886L28.5888 25.4581C28.2919 23.6164 26.5453 23.7684 26.5453 23.7684ZM22.0539 26.6622C24.3495 28.673 25.8466 26.6622 25.8466 26.6622C25.8167 26.3949 25.652 26.0442 25.4349 25.6886C24.9384 24.8695 24.1773 24.0137 24.1773 24.0137C24.1773 24.0137 24.3969 22.3951 24.5965 20.8281C25.1155 20.4333 25.622 20.0066 26.0986 19.5456C26.7698 18.8957 27.3836 18.1796 27.8952 17.3924C30.2681 13.741 28.0573 11.8919 27.6806 10.0355C23.2716 10.1606 21.9316 8.0418 21.9316 8.0418C21.732 9.17967 21.5574 10.0355 21.5574 10.0355C21.5574 10.0355 19.7608 11.6516 17.9144 13.1745C16.0679 14.6974 10.1793 15.6783 8.48252 19.7001C8.03089 20.7717 7.92858 21.6227 8.0234 22.2946C8.2854 24.1412 10.0295 24.6292 10.0295 24.6292C10.0295 24.6292 9.4806 25.3624 10.0295 26.6867L18.3136 26.6646C18.3136 26.6646 19.162 24.9995 17.066 24.6292C17.066 24.6292 18.9948 24.075 21.3253 22.8709L22.0539 26.6622Z" fill="black"/>
</svg>
