<svg width="13" height="13" viewBox="0 0 13 13" fill="none" xmlns="http://www.w3.org/2000/svg">
<path fill-rule="evenodd" clip-rule="evenodd" d="M10.3958 8.09343C10.3958 7.8586 10.4891 7.63339 10.6552 7.46734C10.8212 7.30129 11.0464 7.20801 11.2812 7.20801C11.5161 7.20801 11.7413 7.30129 11.9073 7.46734C12.0734 7.63339 12.1667 7.8586 12.1667 8.09343C12.1667 8.32825 12.0734 8.55346 11.9073 8.71951C11.7413 8.88556 11.5161 8.97884 11.2812 8.97884C11.0464 8.97884 10.8212 8.88556 10.6552 8.71951C10.4891 8.55346 10.3958 8.32825 10.3958 8.09343ZM4.72917 10.2184H8.27083V9.33301H4.72917V10.2184ZM1.71875 8.80176C1.48392 8.80176 1.25871 8.70848 1.09267 8.54243C0.926618 8.37638 0.833333 8.15117 0.833333 7.91634C0.833333 7.68152 0.926618 7.45631 1.09267 7.29026C1.25871 7.12421 1.48392 7.03093 1.71875 7.03093C1.95358 7.03093 2.17879 7.12421 2.34483 7.29026C2.51088 7.45631 2.60417 7.68152 2.60417 7.91634C2.60417 8.15117 2.51088 8.37638 2.34483 8.54243C2.17879 8.70848 1.95358 8.80176 1.71875 8.80176ZM3.45417 2.49405C3.50375 2.34884 3.63833 2.24967 3.78708 2.24967H9.20937C9.36167 2.24967 9.49625 2.34884 9.55646 2.52592L10.6544 5.43718H2.34563L3.45417 2.49405ZM12.875 5.1882V4.90593C12.875 4.76503 12.819 4.6299 12.7194 4.53028C12.6198 4.43065 12.4846 4.37468 12.3438 4.37468H11.7665L10.8917 2.05488C10.7761 1.70043 10.5516 1.39149 10.2502 1.17209C9.94873 0.952692 9.58574 0.834029 9.21292 0.833008H3.78354C3.01854 0.836549 2.34562 1.32884 2.11896 2.02655L1.23354 4.37468H0.65625C0.515354 4.37468 0.380228 4.43065 0.280599 4.53028C0.180971 4.6299 0.125 4.76503 0.125 4.90593V5.1882C0.12503 5.30907 0.166279 5.42632 0.241938 5.52059C0.317598 5.61486 0.423142 5.68051 0.541146 5.7067L0.69875 5.74176L0.426042 6.36155C0.230809 6.80215 0.129491 7.27859 0.128542 7.76051L0.125 11.9468C0.125 12.262 0.383542 12.5205 0.69875 12.5205H1.67625C1.99146 12.5205 2.25 12.262 2.25 11.9468V11.2809H1.71875V10.7497H11.2812V11.2809H10.75V11.9468C10.75 12.262 11.0085 12.5205 11.3237 12.5205H12.3013C12.6165 12.5205 12.875 12.262 12.875 11.9468V7.76759C12.875 7.28238 12.7723 6.80072 12.574 6.35801L12.3013 5.74176L12.4589 5.7067C12.5769 5.68051 12.6824 5.61486 12.7581 5.52059C12.8337 5.42632 12.875 5.30907 12.875 5.1882Z" fill="#373737"/>
</svg>
