<svg width="23" height="14" viewBox="0 0 23 14" fill="none" xmlns="http://www.w3.org/2000/svg">
<path fill-rule="evenodd" clip-rule="evenodd" d="M16.3965 0.139336C18.3906 0.615279 19.1534 1.81461 20.1097 3.46535H16.3965V0.139336ZM4.74277 3.60396C5.1332 3.60396 5.4166 3.7978 5.4166 4.25082C5.4166 4.63292 5.116 4.94281 4.7447 4.94389H0.673828C0.301643 4.94389 0 5.25433 0 5.63696C0 6.01978 0.301643 6.33003 0.673828 6.33003H6.73828C7.11398 6.33003 7.41474 6.64011 7.41474 7.0231C7.41474 7.40591 7.1131 7.71617 6.74091 7.71617H0.673828C0.301643 7.71617 0 8.02643 0 8.40924C0 8.79205 0.301643 9.10231 0.673828 9.10231H2.15625V11.1815C2.15625 11.5643 2.45789 11.8746 2.83008 11.8746H4.18458C4.42603 13.0979 5.47696 14 6.71582 14C7.95468 14 9.00561 13.0979 9.24706 11.8746H16.0889C16.3303 13.0979 17.3813 14 18.6201 14C19.859 14 20.9099 13.0979 21.1514 11.8746H22.3262C22.6984 11.8746 23 11.5643 23 11.1815V7.0231C23 4.98956 20.9146 4.85455 20.9127 4.85148H15.7227C15.3505 4.85148 15.0488 4.54123 15.0488 4.15842V0H2.83008C2.45789 0 2.15625 0.310257 2.15625 0.693069V2.21782H1.34766C0.975471 2.21782 0.673828 2.52808 0.673828 2.91089C0.673828 3.2937 0.975471 3.60396 1.34766 3.60396H4.74277ZM19.4936 10.4448C19.976 10.9409 19.976 11.7457 19.4936 12.2419C18.7177 13.04 17.3848 12.4722 17.3848 11.3432C17.3848 10.2145 18.7177 9.64666 19.4936 10.4448ZM7.58934 10.4448C8.07172 10.9409 8.07172 11.7457 7.58934 12.2419C6.81339 13.04 5.48047 12.4722 5.48047 11.3432C5.48047 10.2145 6.81339 9.64666 7.58934 10.4448Z" fill="#373737"/>
</svg>
