<svg width="14" height="19" viewBox="0 0 14 19" fill="none" xmlns="http://www.w3.org/2000/svg">
<path d="M5.85534 12.432C5.85534 11.568 6.04734 10.856 6.43134 10.296C6.83134 9.72 7.40734 9.096 8.15934 8.424C8.73534 7.912 9.15934 7.472 9.43134 7.104C9.71934 6.72 9.86334 6.288 9.86334 5.808C9.86334 5.136 9.59134 4.592 9.04734 4.176C8.50334 3.76 7.77534 3.552 6.86334 3.552C5.13534 3.552 3.83134 4.168 2.95134 5.4L0.623344 3.888C1.31134 2.944 2.19934 2.224 3.28734 1.728C4.37534 1.216 5.65534 0.959999 7.12734 0.959999C8.91934 0.959999 10.3433 1.352 11.3993 2.136C12.4713 2.904 13.0073 3.968 13.0073 5.328C13.0073 5.984 12.8953 6.56 12.6713 7.056C12.4633 7.552 12.2073 7.976 11.9033 8.328C11.5993 8.664 11.1993 9.056 10.7033 9.504C10.0953 10.048 9.63934 10.528 9.33534 10.944C9.04734 11.36 8.90334 11.856 8.90334 12.432H5.85534ZM7.39134 18.168C6.83134 18.168 6.36734 17.992 5.99934 17.64C5.64734 17.272 5.47134 16.824 5.47134 16.296C5.47134 15.768 5.64734 15.328 5.99934 14.976C6.36734 14.624 6.83134 14.448 7.39134 14.448C7.93534 14.448 8.38334 14.624 8.73534 14.976C9.10334 15.328 9.28734 15.768 9.28734 16.296C9.28734 16.824 9.10334 17.272 8.73534 17.64C8.38334 17.992 7.93534 18.168 7.39134 18.168Z" fill="black"/>
</svg>
