<svg width="29" height="26" viewBox="0 0 29 26" fill="none" xmlns="http://www.w3.org/2000/svg">
<rect x="5.5" y="1.5" width="22" height="22" rx="11" fill="white" stroke="black" stroke-width="3"/>
<rect x="1" y="13" width="15" height="13" fill="white"/>
<path d="M5.226 14.4351C5.47648 14.7296 5.91825 14.7653 6.21274 14.5148L11.0116 10.4331C11.3061 10.1826 11.3418 9.74085 11.0913 9.44637C10.8409 9.15188 10.3991 9.1162 10.1046 9.36668L5.8389 12.9949L2.2107 8.72919C1.96022 8.4347 1.51844 8.39903 1.22396 8.6495C0.929473 8.89998 0.893797 9.34176 1.14427 9.63624L5.226 14.4351ZM5.30227 10.9437L5.06148 13.9253L6.45694 14.038L6.69773 11.0563L5.30227 10.9437Z" fill="black"/>
<line x1="16" y1="13.5" x2="23" y2="13.5" stroke="black"/>
<line x1="16.5" y1="5" x2="16.5" y2="14" stroke="black"/>
</svg>
