<svg width="26" height="12" viewBox="0 0 26 12" fill="none" xmlns="http://www.w3.org/2000/svg">
<path d="M8.49433 0.804688C6.85993 0.804688 3.74427 4.82338 3.74427 4.82338C3.74427 4.82338 1.95853 5.12198 0.791682 5.82218C-0.374715 6.52284 0.092386 9.32318 0.092386 9.32318H1.90161C1.90161 8.16311 2.84169 7.22349 4.00221 7.22349C5.16228 7.22349 6.10281 8.16221 6.10281 9.32318H18.9693C18.9693 8.16311 19.9098 7.22349 21.069 7.22349C22.2291 7.22349 23.1687 8.16221 23.1687 9.32318H25.9998V4.18868V0.805139C25.0669 0.804687 10.1292 0.804688 8.49433 0.804688ZM1.73131 6.82821H0.763674V6.2152H1.73131V6.82821ZM11.5811 4.46425H4.73855C4.73855 4.46425 7.17389 1.37162 8.33351 1.37162C9.49313 1.37162 11.5806 1.37162 11.5806 1.37162L11.5811 4.46425ZM19.4726 5.06326H13.81V1.911H24.4724C24.4706 1.91236 23.9272 5.06326 19.4726 5.06326ZM3.95162 7.45207C2.91848 7.45207 2.08095 8.2896 2.08095 9.32363C2.08095 10.3568 2.91803 11.1952 3.95162 11.1952C4.98475 11.1952 5.82228 10.3577 5.82228 9.32363C5.82228 8.29005 4.98475 7.45207 3.95162 7.45207ZM3.95207 10.144C3.49987 10.144 3.1317 9.77628 3.1317 9.32363C3.1317 8.87099 3.50033 8.50417 3.95207 8.50417C4.40426 8.50417 4.77198 8.87189 4.77198 9.32363C4.77243 9.77583 4.40471 10.144 3.95207 10.144ZM21.0107 7.45207C19.9772 7.45207 19.1387 8.2896 19.1387 9.32363C19.1387 10.3568 19.9763 11.1952 21.0107 11.1952C22.043 11.1952 22.881 10.3577 22.881 9.32363C22.881 8.29005 22.0434 7.45207 21.0107 7.45207ZM21.0107 10.144C20.5581 10.144 20.1899 9.77628 20.1899 9.32363C20.1899 8.87099 20.5581 8.50417 21.0107 8.50417C21.4629 8.50417 21.8307 8.87189 21.8307 9.32363C21.8298 9.77583 21.4625 10.144 21.0107 10.144ZM6.23427 9.4971H19.0836V10.1092H6.23427V9.4971Z" fill="#373737"/>
</svg>
