<svg width="55" height="31" viewBox="0 0 55 31" fill="none" xmlns="http://www.w3.org/2000/svg">
<path d="M45.1667 6.5L38.5 10.6509V15.1509V19.1509L45.1667 15V11V6.5Z" fill="black"/>
<path d="M38.5 10.6509L27.5 17.5V22L38.5 15.1509V10.6509Z" fill="black"/>
<path d="M27.5 26L38.5 19.1509V15.1509L27.5 22V26Z" fill="black"/>
<path d="M54 1L46.7727 5.5L45.1667 6.5V11L47.5758 9.5L54 5.5V1Z" fill="black"/>
<path d="M54 5.5L47.5758 9.5L45.1667 11V15L54 9.5V5.5Z" fill="black"/>
<path d="M27.5 30L38.5 23.1509V19.1509L27.5 26V30Z" fill="black"/>
<path d="M54 9.5L47.5758 13.5L45.1667 15V19L54 13.5V9.5Z" fill="black"/>
<path d="M45.1667 15L38.5 19.1509V23.1509L45.1667 19V15Z" fill="black"/>
<path d="M54 1H27.5L18.6667 6.5M54 1L46.7727 5.5L45.1667 6.5M54 1V9.5M54 1V5.5M27.5 17.5H8.22727H1M27.5 17.5L38.5 10.6509M27.5 17.5V26M27.5 17.5V22M1 17.5L12 10.6509M1 17.5V26H27.5M54 9.5L45.1667 15M54 9.5V5.5M54 9.5L47.5758 13.5L45.1667 15M54 9.5V13.5L45.1667 19M27.5 26L38.5 19.1509M27.5 26V22M27.5 26V30M54 5.5L47.5758 9.5L45.1667 11M27.5 22H7.42424H1M27.5 22L38.5 15.1509M12 10.6509H38.5M12 10.6509L18.6667 6.5M38.5 10.6509L45.1667 6.5M38.5 10.6509V15.1509M38.5 19.1509L45.1667 15M38.5 19.1509V15.1509M38.5 19.1509V23.1509M45.1667 6.5H18.6667M45.1667 6.5V11M45.1667 15V11M45.1667 15V19M1 21.5V30H27.5M27.5 30L38.5 23.1509M38.5 23.1509L45.1667 19" stroke="black" stroke-width="2"/>
</svg>
