<svg width="55" height="55" viewBox="0 0 55 55" fill="none" xmlns="http://www.w3.org/2000/svg">
<path d="M19.433 37.4277C18.7088 36.9511 18.168 35.7686 18.168 34.4211C18.168 33.2386 18.5621 32.2027 19.158 31.6436" fill="#DFDFE3"/>
<path d="M19.433 37.4277C18.7088 36.9511 18.168 35.7686 18.168 34.4211C18.168 33.2386 18.5621 32.2027 19.158 31.6436" stroke="black" stroke-width="0.2462" stroke-miterlimit="10"/>
<path d="M43.9912 42.6345H12.3846C5.84874 42.6345 0.55957 37.3362 0.55957 30.8095V24.1912C0.55957 17.6554 5.8579 12.3662 12.3846 12.3662H44.4312C49.9587 12.3662 54.4412 16.8487 54.4412 22.3762V32.1937C54.4412 37.9595 49.7662 42.6345 43.9912 42.6345Z" stroke="black" stroke-width="0.2462" stroke-miterlimit="10"/>
<path d="M1.5127 19.7263C1.83353 20.1571 2.4477 20.2579 2.8877 19.9463C4.38186 18.9196 7.4527 16.5821 7.63603 14.5563C7.82853 12.4021 4.6752 15.1979 3.77686 16.1329C1.94353 18.4521 1.63186 19.3321 1.5127 19.7263Z" stroke="black" stroke-width="0.2462" stroke-miterlimit="10"/>
<path d="M1.5127 35.2822C1.8427 34.8514 2.4477 34.7505 2.89686 35.0622C4.39103 36.0889 7.46186 38.4264 7.6452 40.4522C7.8377 42.6064 4.68436 39.8105 3.78603 38.8755C1.94353 36.5564 1.63186 35.6764 1.5127 35.2822Z" stroke="black" stroke-width="0.2462" stroke-miterlimit="10"/>
<path d="M3.91405 35.8141C3.29072 34.3933 2.94238 32.8258 2.94238 31.1758V23.8241C2.94238 22.5316 3.15322 21.2849 3.54738 20.1299C3.65738 19.8183 3.77655 19.5066 3.90488 19.2041" stroke="black" stroke-width="0.2462" stroke-miterlimit="10"/>
<path d="M20.6527 41.6993C19.5802 39.2793 19.2227 36.6027 19.2227 33.7885V21.221C19.2227 19.0118 20.4143 13.8418 20.6435 13.3193" stroke="black" stroke-width="0.2462" stroke-miterlimit="10"/>
<path d="M43.9173 41.681H19.5707C12.4207 41.681 6.61816 35.8785 6.61816 28.7285V26.2718C6.61816 19.1218 12.4207 13.3193 19.5707 13.3193H43.9265C48.464 13.3193 52.1398 16.9952 52.1398 21.5327V33.4768C52.1307 38.0052 48.4548 41.681 43.9173 41.681Z" stroke="black" stroke-width="0.2462" stroke-miterlimit="10"/>
<path d="M38.9307 13.3193C43.4682 13.3193 47.144 16.9952 47.144 21.5327V33.4768C47.144 38.0143 43.4682 41.6902 38.9307 41.6902" stroke="black" stroke-width="0.2462" stroke-miterlimit="10"/>
<path d="M19.1953 31.5604C19.4703 31.3221 19.7911 31.1846 20.1211 31.1846C21.2211 31.1846 22.1011 32.6237 22.1011 34.4021C22.1011 36.1804 21.212 37.6196 20.1211 37.6196C19.9195 37.6196 19.6811 37.5554 19.4978 37.4637" stroke="black" stroke-width="0.2462" stroke-miterlimit="10"/>
<path d="M19.1582 31.6343C19.4515 31.3593 19.7907 31.1943 20.1574 31.1943C20.359 31.1943 20.5515 31.2402 20.7349 31.3318" stroke="black" stroke-width="0.2462" stroke-miterlimit="10"/>
<path d="M30.3872 38.8121H24.4931C23.6222 38.8121 22.9072 38.0971 22.9072 37.2263V31.5888C22.9072 30.7179 23.6222 30.0029 24.4931 30.0029H30.3872C31.2581 30.0029 31.9731 30.7179 31.9731 31.5888V37.2263C31.9731 38.0971 31.2581 38.8121 30.3872 38.8121Z" fill="#DFDFE3" stroke="black" stroke-width="0.2462" stroke-miterlimit="10"/>
<path d="M26.2171 36.9235C27.6093 36.9235 28.738 35.7949 28.738 34.4027C28.738 33.0105 27.6093 31.8818 26.2171 31.8818C24.8249 31.8818 23.6963 33.0105 23.6963 34.4027C23.6963 35.7949 24.8249 36.9235 26.2171 36.9235Z" fill="white" stroke="black" stroke-width="0.2462" stroke-miterlimit="10"/>
<path d="M29.1221 29.9932V38.8115" stroke="black" stroke-width="0.2462" stroke-miterlimit="10"/>
<path d="M30.5245 37.1156C30.0387 37.1156 29.6445 36.7215 29.6445 36.2356V32.7706C29.6445 32.2848 30.0387 31.8906 30.5245 31.8906C31.0104 31.8906 31.4045 32.2848 31.4045 32.7706V36.2356C31.4045 36.7215 31.0104 37.1156 30.5245 37.1156Z" stroke="black" stroke-width="0.2462" stroke-miterlimit="10"/>
<path d="M20.643 13.3195L13.1172 12.3662" stroke="black" stroke-width="0.2462" stroke-miterlimit="10"/>
<path d="M40.0947 13.3195L44.4306 12.3662" stroke="black" stroke-width="0.2462" stroke-miterlimit="10"/>
<path d="M20.643 41.6621L13.1172 42.6154" stroke="black" stroke-width="0.2462" stroke-miterlimit="10"/>
<path d="M40.0947 41.6621L44.4306 42.6154" stroke="black" stroke-width="0.2462" stroke-miterlimit="10"/>
<path d="M30.3872 24.5211H24.4931C23.6222 24.5211 22.9072 23.8061 22.9072 22.9352V17.2977C22.9072 16.4269 23.6222 15.7119 24.4931 15.7119H30.3872C31.2581 15.7119 31.9731 16.4269 31.9731 17.2977V22.9352C31.9731 23.8061 31.2581 24.5211 30.3872 24.5211Z" fill="#DFDFE3" stroke="black" stroke-width="0.2462" stroke-miterlimit="10"/>
<path d="M26.2171 22.6325C27.6093 22.6325 28.738 21.5039 28.738 20.1117C28.738 18.7194 27.6093 17.5908 26.2171 17.5908C24.8249 17.5908 23.6963 18.7194 23.6963 20.1117C23.6963 21.5039 24.8249 22.6325 26.2171 22.6325Z" fill="white" stroke="black" stroke-width="0.2462" stroke-miterlimit="10"/>
<path d="M29.1221 15.7021V24.5205" stroke="black" stroke-width="0.2462" stroke-miterlimit="10"/>
<path d="M30.5245 22.8246C30.0387 22.8246 29.6445 22.4304 29.6445 21.9446V18.4796C29.6445 17.9938 30.0387 17.5996 30.5245 17.5996C31.0104 17.5996 31.4045 17.9938 31.4045 18.4796V21.9446C31.4045 22.4213 31.0104 22.8246 30.5245 22.8246Z" stroke="black" stroke-width="0.2462" stroke-miterlimit="10"/>
<path d="M42.3228 23.0816H36.4286C35.5578 23.0816 34.8428 22.3666 34.8428 21.4958V15.8583C34.8428 14.9875 35.5578 14.2725 36.4286 14.2725H42.3228C43.1936 14.2725 43.9086 14.9875 43.9086 15.8583V21.4958C43.9178 22.3666 43.2028 23.0816 42.3228 23.0816Z" fill="#DFDFE3" stroke="black" stroke-width="0.2462" stroke-miterlimit="10"/>
<path d="M38.1605 21.193C39.5527 21.193 40.6813 20.0644 40.6813 18.6722C40.6813 17.28 39.5527 16.1514 38.1605 16.1514C36.7683 16.1514 35.6396 17.28 35.6396 18.6722C35.6396 20.0644 36.7683 21.193 38.1605 21.193Z" fill="white" stroke="black" stroke-width="0.2462" stroke-miterlimit="10"/>
<path d="M41.0664 14.2637V23.082" stroke="black" stroke-width="0.2462" stroke-miterlimit="10"/>
<path d="M42.4689 21.3764C41.983 21.3764 41.5889 20.9822 41.5889 20.4964V17.0314C41.5889 16.5455 41.983 16.1514 42.4689 16.1514C42.9547 16.1514 43.3489 16.5455 43.3489 17.0314V20.4964C43.3489 20.9822 42.9547 21.3764 42.4689 21.3764Z" stroke="black" stroke-width="0.2462" stroke-miterlimit="10"/>
<path d="M42.3228 31.9H36.4286C35.5578 31.9 34.8428 31.185 34.8428 30.3142V24.6767C34.8428 23.8058 35.5578 23.0908 36.4286 23.0908H42.3228C43.1936 23.0908 43.9086 23.8058 43.9086 24.6767V30.3142C43.9178 31.185 43.2028 31.9 42.3228 31.9Z" fill="#DFDFE3" stroke="black" stroke-width="0.2462" stroke-miterlimit="10"/>
<path d="M38.1605 30.0114C39.5527 30.0114 40.6813 28.8828 40.6813 27.4906C40.6813 26.0983 39.5527 24.9697 38.1605 24.9697C36.7683 24.9697 35.6396 26.0983 35.6396 27.4906C35.6396 28.8828 36.7683 30.0114 38.1605 30.0114Z" fill="#64B02E" stroke="black" stroke-width="0.2462" stroke-miterlimit="10"/>
<path d="M41.0664 23.082V31.9004" stroke="black" stroke-width="0.2462" stroke-miterlimit="10"/>
<path d="M42.4689 30.1947C41.983 30.1947 41.5889 29.8006 41.5889 29.3147V25.8497C41.5889 25.3639 41.983 24.9697 42.4689 24.9697C42.9547 24.9697 43.3489 25.3639 43.3489 25.8497V29.3147C43.3489 29.8006 42.9547 30.1947 42.4689 30.1947Z" stroke="black" stroke-width="0.2462" stroke-miterlimit="10"/>
<path d="M42.3228 40.7183H36.4286C35.5578 40.7183 34.8428 40.0033 34.8428 39.1325V33.495C34.8428 32.6242 35.5578 31.9092 36.4286 31.9092H42.3228C43.1936 31.9092 43.9086 32.6242 43.9086 33.495V39.1325C43.9178 40.0033 43.2028 40.7183 42.3228 40.7183Z" fill="#DFDFE3" stroke="black" stroke-width="0.2462" stroke-miterlimit="10"/>
<path d="M38.1605 38.8298C39.5527 38.8298 40.6813 37.7011 40.6813 36.3089C40.6813 34.9167 39.5527 33.7881 38.1605 33.7881C36.7683 33.7881 35.6396 34.9167 35.6396 36.3089C35.6396 37.7011 36.7683 38.8298 38.1605 38.8298Z" fill="white" stroke="black" stroke-width="0.2462" stroke-miterlimit="10"/>
<path d="M41.0664 31.9004V40.7187" stroke="black" stroke-width="0.2462" stroke-miterlimit="10"/>
<path d="M42.4689 39.0131C41.983 39.0131 41.5889 38.6189 41.5889 38.1331V34.6681C41.5889 34.1823 41.983 33.7881 42.4689 33.7881C42.9547 33.7881 43.3489 34.1823 43.3489 34.6681V38.1331C43.3489 38.6189 42.9547 39.0131 42.4689 39.0131Z" stroke="black" stroke-width="0.2462" stroke-miterlimit="10"/>
</svg>
