<svg width="40" height="40" viewBox="0 0 40 40" fill="none" xmlns="http://www.w3.org/2000/svg">
<g clip-path="url(#clip0)">
<path d="M13.0684 12.0078C10.554 12.0078 5.76065 18.1904 5.76065 18.1904C5.76065 18.1904 3.01337 18.6498 1.21822 19.727C-0.576241 20.805 0.142376 25.1132 0.142376 25.1132H2.9258C2.9258 23.3285 4.37207 21.8829 6.15749 21.8829C7.94222 21.8829 9.38918 23.3271 9.38918 25.1132H29.1838C29.1838 23.3285 30.6308 21.8829 32.4141 21.8829C34.1988 21.8829 35.6444 23.3271 35.6444 25.1132H39.9999V17.214V12.0085C38.5648 12.0078 15.5836 12.0078 13.0684 12.0078ZM2.66379 21.2748H1.17513V20.3317H2.66379V21.2748ZM17.8173 17.6379H7.29032C7.29032 17.6379 11.037 12.88 12.821 12.88C14.6051 12.88 17.8166 12.88 17.8166 12.88L17.8173 17.6379ZM29.958 18.5595H21.2464V13.7098H37.6502C37.6474 13.7119 36.8113 18.5595 29.958 18.5595ZM6.07965 22.2346C4.49022 22.2346 3.20171 23.5231 3.20171 25.1139C3.20171 26.7033 4.48952 27.9932 6.07965 27.9932C7.66909 27.9932 8.9576 26.7047 8.9576 25.1139C8.9576 23.5238 7.66909 22.2346 6.07965 22.2346ZM6.08035 26.376C5.38467 26.376 4.81825 25.8103 4.81825 25.1139C4.81825 24.4175 5.38536 23.8532 6.08035 23.8532C6.77603 23.8532 7.34175 24.4189 7.34175 25.1139C7.34245 25.8096 6.77673 26.376 6.08035 26.376ZM32.3245 22.2346C30.7343 22.2346 29.4444 23.5231 29.4444 25.1139C29.4444 26.7033 30.7329 27.9932 32.3245 27.9932C33.9125 27.9932 35.2017 26.7047 35.2017 25.1139C35.2017 23.5238 33.9132 22.2346 32.3245 22.2346ZM32.3245 26.376C31.6281 26.376 31.0617 25.8103 31.0617 25.1139C31.0617 24.4175 31.6281 23.8532 32.3245 23.8532C33.0201 23.8532 33.5859 24.4189 33.5859 25.1139C33.5845 25.8096 33.0195 26.376 32.3245 26.376ZM9.59142 25.3808H29.3596V26.3225H9.59142V25.3808Z" fill="#373737"/>
</g>
<defs>
<clipPath id="clip0">
<rect width="40" height="40" fill="white"/>
</clipPath>
</defs>
</svg>
