<svg width="29" height="29" viewBox="0 0 29 29" fill="none" xmlns="http://www.w3.org/2000/svg">
<path d="M0.908203 14.5419V10.6523C0.908203 10.6523 1.70117 8.12207 4.7217 8.12207C7.74223 8.12207 24.8105 8.12207 24.8105 8.12207C24.8105 8.12207 28.0576 8.72654 28.0576 10.2364C28.0576 11.7462 28.0576 14.3525 28.0576 14.3525L0.908203 14.5419Z" fill="white"/>
<path d="M1.02133 14.7305V23.8492C1.02133 23.8492 0.681482 27.2476 3.85336 27.2476C7.02523 27.2476 23.9041 27.2476 23.9041 27.2476C23.9041 27.2476 28.3783 27.0772 28.3783 24.189C28.3783 21.3008 28.3783 14.3906 28.3783 14.3906L1.02133 14.7305Z" fill="white"/>
<path d="M21.4998 8.40792H19.6873V4.57177C19.6873 4.06245 19.2813 3.64648 18.7811 3.64648H10.2197C9.71948 3.64648 9.31348 4.06155 9.31348 4.57177V8.40792H7.50098V4.57177C7.50098 3.06286 8.72079 1.83398 10.2197 1.83398H18.7811C20.28 1.83398 21.4998 3.06195 21.4998 4.57177V8.40792Z" fill="black"/>
<path d="M25.375 9.02637C26.3746 9.02637 27.1875 9.83927 27.1875 10.8389V24.4462C27.1875 25.4458 26.3746 26.2587 25.375 26.2587H3.625C2.62541 26.2587 1.8125 25.4458 1.8125 24.4462V10.8389C1.8125 9.83927 2.62541 9.02637 3.625 9.02637H25.375ZM25.375 7.21387H3.625C1.63125 7.21387 0 8.84512 0 10.8389V24.4462C0 26.44 1.63125 28.0712 3.625 28.0712H25.375C27.3687 28.0712 29 26.44 29 24.4462V10.8389C29 8.84512 27.3687 7.21387 25.375 7.21387Z" fill="black"/>
<path d="M28.208 13.2861H1.02051V15.0986H28.208V13.2861Z" fill="black"/>
<path d="M15.5205 11.6445H13.708V16.7422H15.5205V11.6445Z" fill="black"/>
</svg>
