<svg width="25" height="13" viewBox="0 0 25 13" fill="none" xmlns="http://www.w3.org/2000/svg">
<path d="M17.4049 10.5297H9.22873C9.03131 10.5297 8.87109 10.3695 8.87109 10.1721C8.87109 9.97467 9.03131 9.81445 9.22873 9.81445H17.4049C17.6024 9.81445 17.7626 9.97467 17.7626 10.1721C17.7626 10.3695 17.6024 10.5297 17.4049 10.5297Z" fill="#373737"/>
<path d="M7.28434 12.4749C6.01403 12.4749 4.98047 11.4421 4.98047 10.1711C4.98047 8.90003 6.01331 7.86719 7.28434 7.86719C8.55394 7.86719 9.5875 8.90003 9.5875 10.1711C9.5875 11.4421 8.55394 12.4749 7.28434 12.4749ZM7.28434 8.58317C6.40814 8.58317 5.69574 9.29558 5.69574 10.1718C5.69574 11.048 6.40814 11.7604 7.28434 11.7604C8.15983 11.7604 8.87223 11.048 8.87223 10.1718C8.87223 9.29558 8.15911 8.58317 7.28434 8.58317Z" fill="#373737"/>
<path d="M19.3517 12.4749C18.0814 12.4749 17.0479 11.4421 17.0479 10.1711C17.0479 8.90003 18.0807 7.86719 19.3517 7.86719C20.6228 7.86719 21.6556 8.90003 21.6556 10.1711C21.6556 11.4421 20.622 12.4749 19.3517 12.4749ZM19.3517 8.58317C18.4755 8.58317 17.7631 9.29558 17.7631 10.1718C17.7631 11.048 18.4755 11.7604 19.3517 11.7604C20.2279 11.7604 20.9403 11.048 20.9403 10.1718C20.9403 9.29558 20.2272 8.58317 19.3517 8.58317Z" fill="#373737"/>
<path d="M17.4073 10.5287H9.2297C9.03229 10.5287 8.87207 10.3685 8.87207 10.1711C8.87207 9.9737 9.03229 9.81348 9.2297 9.81348H17.4073C17.6048 9.81348 17.765 9.9737 17.765 10.1711C17.765 10.3685 17.6048 10.5287 17.4073 10.5287Z" fill="#373737"/>
<path d="M23.0139 10.5291H21.2951C21.0977 10.5291 20.9375 10.3689 20.9375 10.1715C20.9375 9.97406 21.0977 9.81384 21.2951 9.81384H23.0139C23.4566 9.81384 23.8279 9.49627 23.8958 9.05852L24.2771 6.61732C24.3035 6.44637 24.2613 6.27613 24.1562 6.13809C24.0518 6.00076 23.9008 5.91349 23.7285 5.89204L18.9641 5.31124C18.8954 5.30266 18.8303 5.27476 18.7774 5.23041L14.4708 1.61045C14.1868 1.37155 13.8256 1.23994 13.4536 1.23994H6.71655C6.38395 1.23994 6.07853 1.40731 5.899 1.6877L3.88552 4.83845C3.84046 4.91069 3.76965 4.96362 3.68811 4.98794L1.2562 5.72109C0.894993 5.82981 0.667539 6.19245 0.725475 6.56582L1.06594 8.74667C1.1625 9.36394 1.68608 9.81241 2.31122 9.81241H5.33608C5.5335 9.81241 5.69372 9.97263 5.69372 10.17C5.69372 10.3675 5.5335 10.5277 5.33608 10.5277H2.30979C1.32988 10.5277 0.508034 9.82529 0.357828 8.85682L0.0173612 6.67597C-0.0949357 5.95212 0.347814 5.24758 1.04806 5.03658L3.35408 4.34134L5.29674 1.30146C5.60789 0.815789 6.13861 0.525391 6.71655 0.525391H13.4551C13.9944 0.525391 14.5187 0.716367 14.9314 1.06327L19.1565 4.61457L23.8157 5.18249C24.1819 5.22755 24.5052 5.41281 24.727 5.70678C24.9494 6.00004 25.0403 6.36268 24.9837 6.72747L24.6025 9.16867C24.4802 9.9569 23.8114 10.5291 23.0139 10.5291Z" fill="#373737"/>
<path d="M15.1355 5.59027H6.93283C6.73542 5.59027 6.5752 5.43005 6.5752 5.23263C6.5752 5.03522 6.73542 4.875 6.93283 4.875H15.1355C15.3329 4.875 15.4931 5.03522 15.4931 5.23263C15.4931 5.43005 15.3329 5.59027 15.1355 5.59027Z" fill="#373737"/>
</svg>
