<svg width="29" height="29" viewBox="0 0 29 29" fill="none" xmlns="http://www.w3.org/2000/svg">
<path d="M9.86906 22.1578C9.86906 22.1578 8.91569 18.8953 7.25 21.2479L7.78288 25.375H22.2512L22.784 21.2479C21.1202 18.8953 20.165 22.1578 20.165 22.1578H9.86906ZM8.91569 18.8301C8.91569 18.8301 10.7581 19.6511 10.7354 21.2488H19.3004C19.2787 19.6511 21.1202 18.8301 21.1202 18.8301C21.1202 18.8301 20.8537 15.6129 20.5202 11.8393C20.165 8.00038 15.0175 8.48884 15.0175 8.48884C15.0175 8.48884 9.86906 8.00038 9.51472 11.8393C9.18212 15.612 8.91478 18.8301 8.91478 18.8301H8.91569ZM11.6009 4.87291C11.6009 6.51503 10.9357 7.91247 15.0175 7.91247C19.0992 7.91247 18.434 6.51322 18.434 4.87291C18.434 3.20903 11.6 3.20903 11.6 4.87291H11.6009Z" fill="#27AE60"/>
</svg>
