<svg width="32" height="32" viewBox="0 0 32 32" fill="none" xmlns="http://www.w3.org/2000/svg">
<g clip-path="url(#clip0)">
<path d="M31.9724 15.8304C31.7185 14.2569 31.1669 12.6698 30.3433 11.3012C30.0222 12.4269 29.1501 13.3221 28.0364 13.6703C28.2003 14.0214 28.3425 14.3831 28.4668 14.7513C27.9182 14.7638 27.3657 14.7618 26.8191 14.7408C25.9495 13.538 24.13 12.8853 22.6457 14.04C22.276 13.2419 21.9984 12.4249 21.8497 11.5672C22.5089 11.6068 23.1677 11.6574 23.8219 11.7471C23.6315 11.3193 23.5258 10.8469 23.5258 10.3489C23.5258 9.71471 23.6982 9.12108 23.9972 8.6086C22.7213 8.45732 21.4314 8.41273 20.1514 8.30803C19.2742 8.23589 18.602 9.08 18.5769 9.88303C18.5013 12.1043 19.144 14.1737 20.1494 16.1094C19.141 16.9199 18.2027 17.6488 17.1707 18.4864C15.8567 17.1729 14.3358 16.0413 12.8184 15.0163C12.0274 14.4823 11.1032 14.7979 10.4314 15.3249C8.37246 16.94 6.31253 18.5571 4.25361 20.1736C3.94151 20.4191 3.74664 20.6931 3.64795 20.9752C3.06685 20.9752 2.48624 20.9752 1.90563 20.9752C-0.635211 20.9752 -0.635211 24.9132 1.90563 24.9132C6.89364 24.9132 11.8816 24.9132 16.8697 24.9132C18.0599 24.9132 18.7813 24.3125 19.1771 23.9714C21.9233 21.5949 23.6831 20.4006 26.4304 18.0236C26.495 17.9684 26.5516 17.9118 26.6067 17.8557C27.8907 17.9143 29.1836 17.8823 30.4561 17.8227C31.5552 17.7746 32.1378 16.8633 31.9724 15.8304ZM9.56123 20.9752C10.3362 20.3665 11.1122 19.7589 11.8862 19.1517C12.6666 19.7058 13.4421 20.3084 14.1405 20.9752C12.6145 20.9752 11.0876 20.9752 9.56123 20.9752Z" fill="#373737"/>
<path d="M27.0856 13.2166C28.7758 13.2166 30.1494 11.8415 30.1494 10.1517C30.1494 8.46251 28.7743 7.08789 27.0856 7.08789C25.3968 7.08789 24.0222 8.46301 24.0222 10.1517C24.0217 11.8415 25.3968 13.2166 27.0856 13.2166Z" fill="#373737"/>
</g>
<defs>
<clipPath id="clip0">
<rect width="32" height="32" fill="white"/>
</clipPath>
</defs>
</svg>
