<svg width="26" height="26" viewBox="0 0 26 26" fill="none" xmlns="http://www.w3.org/2000/svg">
<path d="M2.93834 2.79597C3.08963 2.69511 3.22651 2.56094 3.39761 2.49069C4.4035 2.07285 5.54447 2.03503 6.61069 1.78648C7.97229 1.4722 10.6225 7.73536 8.92865 8.27928C8.29918 8.47649 6.31352 8.77547 5.78941 9.1708C5.32114 9.52291 5.54357 10.3865 6.00554 10.9295C7.21945 12.3587 9.00609 13.9508 10.4172 15.3457H10.419C10.4559 15.3826 10.4974 15.4241 10.5361 15.4637C10.5748 15.5024 10.6171 15.5411 10.6541 15.5798V15.5807C12.049 16.9919 13.6393 18.7803 15.0693 19.9942C15.6124 20.4571 16.476 20.6786 16.8281 20.2095C17.2225 19.6862 17.5224 17.7015 17.7187 17.0711C18.2626 15.3772 24.5267 18.0275 24.2133 19.3909C23.9638 20.4553 23.9251 21.5945 23.5082 22.6012C23.4379 22.7715 23.302 22.9074 23.202 23.0614C20.9318 26.6383 15.4331 27.0985 11.3313 23.6089C9.76704 22.2771 8.24605 20.8903 6.76648 19.4629L6.75838 19.471C6.71966 19.4305 6.68544 19.39 6.64401 19.3504C6.60529 19.3098 6.56476 19.2738 6.52424 19.236L6.53145 19.2288C5.10501 17.7483 3.7191 16.2291 2.38542 14.6631C-1.10052 10.5666 -0.637646 5.0644 2.93834 2.79597ZM24.9922 10.9998L25.9945 0.998522C26.0531 0.393368 25.6064 -0.0523925 25.0012 0.00614168L15 1.00753C14.3939 1.06696 14.2508 1.4704 14.6812 1.90085L17.3945 4.61324L11.7428 10.264C11.3114 10.6954 11.3114 11.4005 11.7428 11.8301L14.2264 14.3146C14.6578 14.746 15.3638 14.746 15.7934 14.3146L21.4451 8.6638L24.1007 11.3195C24.5312 11.7499 24.9337 11.6067 24.9922 10.9998Z" fill="#91B3FA"/>
</svg>
