<svg width="26" height="26" viewBox="0 0 26 26" fill="none" xmlns="http://www.w3.org/2000/svg">
<path d="M15 26H11C10.7348 26 10.4804 25.8946 10.2929 25.7071C10.1054 25.5196 10 25.2652 10 25V23.56C10.0037 23.2862 9.92582 23.0175 9.77632 22.788C9.62682 22.5586 9.41244 22.3789 9.16047 22.2716C8.9085 22.1644 8.63033 22.1346 8.36135 22.1859C8.09237 22.2373 7.84475 22.3675 7.65 22.56L6.65 23.56C6.55704 23.6537 6.44644 23.7281 6.32458 23.7789C6.20272 23.8297 6.07201 23.8558 5.94 23.8558C5.80799 23.8558 5.67728 23.8297 5.55542 23.7789C5.43356 23.7281 5.32296 23.6537 5.23 23.56L2.39 20.78C2.29627 20.687 2.22188 20.5764 2.17111 20.4546C2.12034 20.3327 2.0942 20.202 2.0942 20.07C2.0942 19.938 2.12034 19.8073 2.17111 19.6854C2.22188 19.5636 2.29627 19.453 2.39 19.36L3.39 18.36C3.5825 18.1652 3.71271 17.9176 3.76406 17.6487C3.81541 17.3797 3.78558 17.1015 3.67836 16.8495C3.57113 16.5976 3.39137 16.3832 3.16195 16.2337C2.93253 16.0842 2.66381 16.0063 2.39 16.01H1C0.734784 16.01 0.48043 15.9046 0.292893 15.7171C0.105357 15.5296 0 15.2752 0 15.01V11C0 10.7348 0.105357 10.4804 0.292893 10.2929C0.48043 10.1054 0.734784 10 1 10H2.44C2.71381 10.0037 2.98253 9.92582 3.21195 9.77632C3.44137 9.62682 3.62113 9.41244 3.72836 9.16047C3.83558 8.9085 3.86541 8.63033 3.81406 8.36135C3.76271 8.09237 3.6325 7.84475 3.44 7.65L2.44 6.65C2.34627 6.55704 2.27188 6.44644 2.22111 6.32458C2.17034 6.20272 2.1442 6.07201 2.1442 5.94C2.1442 5.80799 2.17034 5.67728 2.22111 5.55542C2.27188 5.43356 2.34627 5.32296 2.44 5.23L5.22 2.39C5.31296 2.29627 5.42356 2.22188 5.54542 2.17111C5.66728 2.12034 5.79799 2.0942 5.93 2.0942C6.06201 2.0942 6.19272 2.12034 6.31458 2.17111C6.43644 2.22188 6.54704 2.29627 6.64 2.39L7.64 3.39C7.83475 3.5825 8.08237 3.71271 8.35135 3.76406C8.62033 3.81541 8.8985 3.78558 9.15047 3.67836C9.40244 3.57113 9.61682 3.39137 9.76632 3.16195C9.91582 2.93253 9.99368 2.66381 9.99 2.39V1C9.99 0.734784 10.0954 0.48043 10.2829 0.292893C10.4704 0.105357 10.7248 0 10.99 0H14.99C15.2552 0 15.5096 0.105357 15.6971 0.292893C15.8846 0.48043 15.99 0.734784 15.99 1V2.44C15.9863 2.71381 16.0642 2.98253 16.2137 3.21195C16.3632 3.44137 16.5776 3.62113 16.8295 3.72836C17.0815 3.83558 17.3597 3.86541 17.6287 3.81406C17.8976 3.76271 18.1452 3.6325 18.34 3.44L19.34 2.44C19.433 2.34627 19.5436 2.27188 19.6654 2.22111C19.7873 2.17034 19.918 2.1442 20.05 2.1442C20.182 2.1442 20.3127 2.17034 20.4346 2.22111C20.5564 2.27188 20.667 2.34627 20.76 2.44L23.59 5.27C23.6837 5.36296 23.7581 5.47356 23.8089 5.59542C23.8597 5.71728 23.8858 5.84799 23.8858 5.98C23.8858 6.11201 23.8597 6.24272 23.8089 6.36458C23.7581 6.48644 23.6837 6.59704 23.59 6.69L22.59 7.69C22.3975 7.88475 22.2673 8.13237 22.2159 8.40135C22.1646 8.67033 22.1944 8.9485 22.3016 9.20047C22.4089 9.45244 22.5886 9.66682 22.8181 9.81632C23.0475 9.96582 23.3162 10.0437 23.59 10.04H25C25.2652 10.04 25.5196 10.1454 25.7071 10.3329C25.8946 10.5204 26 10.7748 26 11.04V15.04C26 15.3052 25.8946 15.5596 25.7071 15.7471C25.5196 15.9346 25.2652 16.04 25 16.04H23.56C23.2862 16.0363 23.0175 16.1142 22.788 16.2637C22.5586 16.4132 22.3789 16.6276 22.2716 16.8795C22.1644 17.1315 22.1346 17.4097 22.1859 17.6786C22.2373 17.9476 22.3675 18.1952 22.56 18.39L23.56 19.39C23.6537 19.483 23.7281 19.5936 23.7789 19.7154C23.8297 19.8373 23.8558 19.968 23.8558 20.1C23.8558 20.232 23.8297 20.3627 23.7789 20.4846C23.7281 20.6064 23.6537 20.717 23.56 20.81L20.73 23.64C20.637 23.7337 20.5264 23.8081 20.4046 23.8589C20.2827 23.9097 20.152 23.9358 20.02 23.9358C19.888 23.9358 19.7573 23.9097 19.6354 23.8589C19.5136 23.8081 19.403 23.7337 19.31 23.64L18.31 22.64C18.1152 22.4475 17.8676 22.3173 17.5986 22.2659C17.3297 22.2146 17.0515 22.2444 16.7995 22.3516C16.5476 22.4589 16.3332 22.6386 16.1837 22.868C16.0342 23.0975 15.9563 23.3662 15.96 23.64V25C15.9602 25.2584 15.8604 25.5069 15.6814 25.6933C15.5024 25.8798 15.2582 25.9897 15 26ZM12 24H14V23.56C13.9992 22.8923 14.1967 22.2394 14.5676 21.6841C14.9385 21.1288 15.4659 20.6963 16.0831 20.4413C16.7002 20.1863 17.3791 20.1204 18.0338 20.2519C18.6884 20.3834 19.2892 20.7064 19.76 21.18L20.07 21.49L21.49 20.07L21.18 19.76C20.7064 19.2892 20.3834 18.6884 20.2519 18.0338C20.1204 17.3791 20.1863 16.7002 20.4413 16.0831C20.6963 15.4659 21.1288 14.9385 21.6841 14.5676C22.2394 14.1967 22.8923 13.9992 23.56 14H24V12H23.56C22.8923 12.0008 22.2394 11.8033 21.6841 11.4324C21.1288 11.0615 20.6963 10.5341 20.4413 9.91694C20.1863 9.29982 20.1204 8.62086 20.2519 7.96621C20.3834 7.31157 20.7064 6.71075 21.18 6.24L21.49 5.93L20.07 4.51L19.76 4.82C19.2892 5.29355 18.6884 5.61658 18.0338 5.7481C17.3791 5.87963 16.7002 5.81371 16.0831 5.55872C15.4659 5.30373 14.9385 4.87116 14.5676 4.3159C14.1967 3.76064 13.9992 3.10772 14 2.44V2H12V2.44C12.0008 3.10772 11.8033 3.76064 11.4324 4.3159C11.0615 4.87116 10.5341 5.30373 9.91694 5.55872C9.29982 5.81371 8.62086 5.87963 7.96621 5.7481C7.31157 5.61658 6.71075 5.29355 6.24 4.82L5.93 4.51L4.51 5.93L4.82 6.24C5.29355 6.71075 5.61658 7.31157 5.7481 7.96621C5.87963 8.62086 5.81371 9.29982 5.55872 9.91694C5.30373 10.5341 4.87116 11.0615 4.3159 11.4324C3.76064 11.8033 3.10772 12.0008 2.44 12H2V14H2.44C3.10772 13.9992 3.76064 14.1967 4.3159 14.5676C4.87116 14.9385 5.30373 15.4659 5.55872 16.0831C5.81371 16.7002 5.87963 17.3791 5.7481 18.0338C5.61658 18.6884 5.29355 19.2892 4.82 19.76L4.51 20.07L5.93 21.49L6.24 21.18C6.71075 20.7064 7.31157 20.3834 7.96621 20.2519C8.62086 20.1204 9.29982 20.1863 9.91694 20.4413C10.5341 20.6963 11.0615 21.1288 11.4324 21.6841C11.8033 22.2394 12.0008 22.8923 12 23.56V24Z" fill="black"/>
<path d="M13 18C12.0111 18 11.0444 17.7068 10.2222 17.1574C9.39991 16.6079 8.75904 15.8271 8.3806 14.9134C8.00217 13.9998 7.90315 12.9945 8.09608 12.0246C8.289 11.0546 8.76521 10.1637 9.46447 9.46447C10.1637 8.76521 11.0546 8.289 12.0246 8.09608C12.9945 7.90315 13.9998 8.00217 14.9134 8.3806C15.8271 8.75904 16.6079 9.39991 17.1574 10.2222C17.7068 11.0444 18 12.0111 18 13C18 14.3261 17.4732 15.5979 16.5355 16.5355C15.5979 17.4732 14.3261 18 13 18ZM13 10C12.4067 10 11.8266 10.1759 11.3333 10.5056C10.8399 10.8352 10.4554 11.3038 10.2284 11.852C10.0013 12.4001 9.94189 13.0033 10.0576 13.5853C10.1734 14.1672 10.4591 14.7018 10.8787 15.1213C11.2982 15.5409 11.8328 15.8266 12.4147 15.9424C12.9967 16.0581 13.5999 15.9987 14.1481 15.7716C14.6962 15.5446 15.1648 15.1601 15.4944 14.6667C15.8241 14.1734 16 13.5933 16 13C16 12.2044 15.6839 11.4413 15.1213 10.8787C14.5587 10.3161 13.7957 10 13 10Z" fill="black"/>
</svg>
