<svg width="24" height="21" viewBox="0 0 24 21" fill="none" xmlns="http://www.w3.org/2000/svg">
<path d="M0.333008 17.3337H17.833V20.9587H0.333008V17.3337ZM21.9163 17.3337H23.6663V20.9587H21.9163V17.3337ZM18.9997 17.3337H20.7497V20.9587H18.9997V17.3337ZM19.9913 7.34074C20.7147 6.60366 21.158 5.58866 21.158 4.46491C21.158 2.22949 19.408 0.416992 17.2497 0.416992V2.22949C18.4397 2.22949 19.408 3.23241 19.408 4.46491C19.408 5.69741 18.4397 6.70033 17.2497 6.70033V8.51283C19.863 8.51283 21.9163 10.7241 21.9163 13.4307V16.1253H23.6663V13.4187C23.6663 10.7362 22.173 8.41616 19.9913 7.34074ZM16.7013 10.3253H14.9163C13.7263 10.3253 12.758 9.14116 12.758 7.90866C12.758 6.67616 13.7263 5.79408 14.9163 5.79408V3.98158C12.758 3.98158 11.008 5.79408 11.008 8.02949C11.008 10.2649 12.758 12.0774 14.9163 12.0774H16.7013C17.9263 12.0774 18.9997 12.9716 18.9997 14.5545V16.1253H20.7497V14.1437C20.7497 11.9566 18.883 10.3253 16.7013 10.3253Z" fill="black"/>
</svg>
