<svg width="29" height="26" viewBox="0 0 29 26" fill="none" xmlns="http://www.w3.org/2000/svg">
<path d="M1.02226 10.5064C0.547391 3.43517 7.77154 1.25877 13.4688 1.01213C18.865 0.778523 28.9902 3.91833 27.9217 10.5064C27.0748 15.7278 16.6802 17.5038 16.6802 17.5038L11.0599 24L11.8625 17.5038C11.8625 17.5038 1.425 16.5035 1.02226 10.5064Z" fill="#91B3FA" stroke="#91B3FA"/>
<path d="M8.38135 12.056C8.06868 12.056 7.76302 12.0187 7.46435 11.944C7.16568 11.8647 6.92768 11.7667 6.75035 11.65L7.11435 10.866C7.28235 10.9733 7.48535 11.062 7.72335 11.132C7.96135 11.1973 8.19468 11.23 8.42335 11.23C8.88535 11.23 9.11635 11.1157 9.11635 10.887C9.11635 10.7797 9.05335 10.7027 8.92735 10.656C8.80135 10.6093 8.60769 10.5697 8.34635 10.537C8.03835 10.4903 7.78402 10.4367 7.58335 10.376C7.38268 10.3153 7.20768 10.208 7.05835 10.054C6.91368 9.9 6.84135 9.68067 6.84135 9.396C6.84135 9.158 6.90902 8.948 7.04435 8.766C7.18435 8.57933 7.38502 8.43467 7.64635 8.332C7.91235 8.22933 8.22502 8.178 8.58435 8.178C8.85035 8.178 9.11402 8.20833 9.37535 8.269C9.64135 8.325 9.86069 8.40433 10.0334 8.507L9.66935 9.284C9.33802 9.09733 8.97635 9.004 8.58435 9.004C8.35102 9.004 8.17602 9.03667 8.05935 9.102C7.94268 9.16733 7.88435 9.25133 7.88435 9.354C7.88435 9.47067 7.94735 9.55233 8.07335 9.599C8.19935 9.64567 8.40002 9.69 8.67535 9.732C8.98335 9.78333 9.23535 9.83933 9.43135 9.9C9.62735 9.956 9.79769 10.061 9.94235 10.215C10.087 10.369 10.1594 10.5837 10.1594 10.859C10.1594 11.0923 10.0894 11.3 9.94935 11.482C9.80935 11.664 9.60402 11.8063 9.33335 11.909C9.06735 12.007 8.75002 12.056 8.38135 12.056ZM15.6561 8.178C16.1274 8.178 16.5008 8.318 16.7761 8.598C17.0561 8.87333 17.1961 9.28867 17.1961 9.844V12H16.1041V10.012C16.1041 9.71333 16.0411 9.49167 15.9151 9.347C15.7938 9.19767 15.6188 9.123 15.3901 9.123C15.1334 9.123 14.9304 9.207 14.7811 9.375C14.6318 9.53833 14.5571 9.78333 14.5571 10.11V12H13.4651V10.012C13.4651 9.41933 13.2271 9.123 12.7511 9.123C12.4991 9.123 12.2984 9.207 12.1491 9.375C11.9998 9.53833 11.9251 9.78333 11.9251 10.11V12H10.8331V8.234H11.8761V8.668C12.0161 8.50933 12.1864 8.388 12.3871 8.304C12.5924 8.22 12.8164 8.178 13.0591 8.178C13.3251 8.178 13.5654 8.23167 13.7801 8.339C13.9948 8.44167 14.1674 8.59333 14.2981 8.794C14.4521 8.598 14.6458 8.44633 14.8791 8.339C15.1171 8.23167 15.3761 8.178 15.6561 8.178ZM19.4419 12.056C19.1292 12.056 18.8236 12.0187 18.5249 11.944C18.2262 11.8647 17.9882 11.7667 17.8109 11.65L18.1749 10.866C18.3429 10.9733 18.5459 11.062 18.7839 11.132C19.0219 11.1973 19.2552 11.23 19.4839 11.23C19.9459 11.23 20.1769 11.1157 20.1769 10.887C20.1769 10.7797 20.1139 10.7027 19.9879 10.656C19.8619 10.6093 19.6682 10.5697 19.4069 10.537C19.0989 10.4903 18.8446 10.4367 18.6439 10.376C18.4432 10.3153 18.2682 10.208 18.1189 10.054C17.9742 9.9 17.9019 9.68067 17.9019 9.396C17.9019 9.158 17.9696 8.948 18.1049 8.766C18.2449 8.57933 18.4456 8.43467 18.7069 8.332C18.9729 8.22933 19.2856 8.178 19.6449 8.178C19.9109 8.178 20.1746 8.20833 20.4359 8.269C20.7019 8.325 20.9212 8.40433 21.0939 8.507L20.7299 9.284C20.3986 9.09733 20.0369 9.004 19.6449 9.004C19.4116 9.004 19.2366 9.03667 19.1199 9.102C19.0032 9.16733 18.9449 9.25133 18.9449 9.354C18.9449 9.47067 19.0079 9.55233 19.1339 9.599C19.2599 9.64567 19.4606 9.69 19.7359 9.732C20.0439 9.78333 20.2959 9.83933 20.4919 9.9C20.6879 9.956 20.8582 10.061 21.0029 10.215C21.1476 10.369 21.2199 10.5837 21.2199 10.859C21.2199 11.0923 21.1499 11.3 21.0099 11.482C20.8699 11.664 20.6646 11.8063 20.3939 11.909C20.1279 12.007 19.8106 12.056 19.4419 12.056Z" fill="white"/>
</svg>
