<svg width="32" height="29" viewBox="0 0 32 29" fill="none" xmlns="http://www.w3.org/2000/svg">
<path d="M1.02473 11.7463C0.497101 3.7528 8.52393 1.29252 14.8542 1.01371C20.85 0.749634 32.1003 4.29899 30.913 11.7463C29.9719 17.6488 18.4225 19.6564 18.4225 19.6564L12.1777 27L13.0694 19.6564C13.0694 19.6564 1.47223 18.5257 1.02473 11.7463Z" fill="#294367" stroke="#294367"/>
<path d="M9.82666 12.7083C9.514 12.7083 9.20833 12.671 8.90966 12.5963C8.611 12.517 8.373 12.419 8.19566 12.3023L8.55966 11.5183C8.72766 11.6257 8.93066 11.7143 9.16866 11.7843C9.40666 11.8497 9.64 11.8823 9.86866 11.8823C10.3307 11.8823 10.5617 11.768 10.5617 11.5393C10.5617 11.432 10.4987 11.355 10.3727 11.3083C10.2467 11.2617 10.053 11.222 9.79166 11.1893C9.48366 11.1427 9.22933 11.089 9.02866 11.0283C8.828 10.9677 8.653 10.8603 8.50366 10.7063C8.359 10.5523 8.28666 10.333 8.28666 10.0483C8.28666 9.81034 8.35433 9.60034 8.48966 9.41834C8.62966 9.23168 8.83033 9.08701 9.09166 8.98434C9.35766 8.88168 9.67033 8.83034 10.0297 8.83034C10.2957 8.83034 10.5593 8.86068 10.8207 8.92134C11.0867 8.97734 11.306 9.05668 11.4787 9.15934L11.1147 9.93634C10.7833 9.74968 10.4217 9.65634 10.0297 9.65634C9.79633 9.65634 9.62133 9.68901 9.50466 9.75434C9.388 9.81968 9.32966 9.90368 9.32966 10.0063C9.32966 10.123 9.39266 10.2047 9.51866 10.2513C9.64466 10.298 9.84533 10.3423 10.1207 10.3843C10.4287 10.4357 10.6807 10.4917 10.8767 10.5523C11.0727 10.6083 11.243 10.7133 11.3877 10.8673C11.5323 11.0213 11.6047 11.236 11.6047 11.5113C11.6047 11.7447 11.5347 11.9523 11.3947 12.1343C11.2547 12.3163 11.0493 12.4587 10.7787 12.5613C10.5127 12.6593 10.1953 12.7083 9.82666 12.7083ZM17.1014 8.83034C17.5727 8.83034 17.9461 8.97034 18.2214 9.25034C18.5014 9.52568 18.6414 9.94101 18.6414 10.4963V12.6523H17.5494V10.6643C17.5494 10.3657 17.4864 10.144 17.3604 9.99934C17.2391 9.85001 17.0641 9.77534 16.8354 9.77534C16.5787 9.77534 16.3757 9.85934 16.2264 10.0273C16.0771 10.1907 16.0024 10.4357 16.0024 10.7623V12.6523H14.9104V10.6643C14.9104 10.0717 14.6724 9.77534 14.1964 9.77534C13.9444 9.77534 13.7437 9.85934 13.5944 10.0273C13.4451 10.1907 13.3704 10.4357 13.3704 10.7623V12.6523H12.2784V8.88634H13.3214V9.32034C13.4614 9.16168 13.6317 9.04034 13.8324 8.95634C14.0377 8.87234 14.2617 8.83034 14.5044 8.83034C14.7704 8.83034 15.0107 8.88401 15.2254 8.99134C15.4401 9.09401 15.6127 9.24568 15.7434 9.44634C15.8974 9.25034 16.0911 9.09868 16.3244 8.99134C16.5624 8.88401 16.8214 8.83034 17.1014 8.83034ZM20.8872 12.7083C20.5745 12.7083 20.2689 12.671 19.9702 12.5963C19.6715 12.517 19.4335 12.419 19.2562 12.3023L19.6202 11.5183C19.7882 11.6257 19.9912 11.7143 20.2292 11.7843C20.4672 11.8497 20.7005 11.8823 20.9292 11.8823C21.3912 11.8823 21.6222 11.768 21.6222 11.5393C21.6222 11.432 21.5592 11.355 21.4332 11.3083C21.3072 11.2617 21.1135 11.222 20.8522 11.1893C20.5442 11.1427 20.2899 11.089 20.0892 11.0283C19.8885 10.9677 19.7135 10.8603 19.5642 10.7063C19.4195 10.5523 19.3472 10.333 19.3472 10.0483C19.3472 9.81034 19.4149 9.60034 19.5502 9.41834C19.6902 9.23168 19.8909 9.08701 20.1522 8.98434C20.4182 8.88168 20.7309 8.83034 21.0902 8.83034C21.3562 8.83034 21.6199 8.86068 21.8812 8.92134C22.1472 8.97734 22.3665 9.05668 22.5392 9.15934L22.1752 9.93634C21.8439 9.74968 21.4822 9.65634 21.0902 9.65634C20.8569 9.65634 20.6819 9.68901 20.5652 9.75434C20.4485 9.81968 20.3902 9.90368 20.3902 10.0063C20.3902 10.123 20.4532 10.2047 20.5792 10.2513C20.7052 10.298 20.9059 10.3423 21.1812 10.3843C21.4892 10.4357 21.7412 10.4917 21.9372 10.5523C22.1332 10.6083 22.3035 10.7133 22.4482 10.8673C22.5929 11.0213 22.6652 11.236 22.6652 11.5113C22.6652 11.7447 22.5952 11.9523 22.4552 12.1343C22.3152 12.3163 22.1099 12.4587 21.8392 12.5613C21.5732 12.6593 21.2559 12.7083 20.8872 12.7083Z" fill="white"/>
</svg>
