<svg width="31" height="19" viewBox="0 0 31 19" fill="none" xmlns="http://www.w3.org/2000/svg">
<path d="M7.6852 13.6621C8.59005 13.6621 9.32617 14.3982 9.32617 15.3031C9.32617 16.2079 8.59005 16.944 7.6852 16.944C6.7804 16.944 6.04429 16.2079 6.04429 15.3031C6.04429 14.3982 6.7804 13.6621 7.6852 13.6621ZM7.6852 16.1706C8.16357 16.1706 8.55274 15.7814 8.55274 15.3031C8.55274 14.8247 8.16357 14.4355 7.6852 14.4355C7.20689 14.4355 6.81772 14.8247 6.81772 15.3031C6.81772 15.7813 7.20689 16.1706 7.6852 16.1706Z" fill="#373737"/>
<path d="M17.1384 13.6621C18.0432 13.6621 18.7793 14.3982 18.7793 15.3031C18.7793 16.2079 18.0432 16.944 17.1384 16.944C16.2335 16.944 15.4974 16.2079 15.4974 15.3031C15.4974 14.3982 16.2335 13.6621 17.1384 13.6621ZM17.1384 16.1706C17.6167 16.1706 18.0059 15.7814 18.0059 15.3031C18.0059 14.8247 17.6167 14.4355 17.1384 14.4355C16.66 14.4355 16.2708 14.8247 16.2708 15.3031C16.2708 15.7813 16.66 16.1706 17.1384 16.1706Z" fill="#373737"/>
<path d="M1.43152 6.85073V5.31043H4.21235L5.0369 0.568359H17.1384H17.4621H18.8408V1.3418H17.6003L18.819 8.16545L22.6853 11.0894V12.6754L23.4302 13.1216V11.17H25.0892L29.9209 14.2675V13.2784H30.6943V14.7633V14.9747V16.6003H23.4302V15.8591L22.6853 15.4128V16.3942H20.071C19.627 17.5832 18.48 18.4322 17.138 18.4322C15.7961 18.4322 14.6491 17.5832 14.205 16.3943H10.6183C10.1672 17.608 9.00115 18.4324 7.68483 18.4324C6.36824 18.4324 5.20171 17.6079 4.75079 16.3943H2.95674L2.31388 14.1921L1.62952 13.6652H0.305912V12.0092V11.2358V6.85073H1.43152ZM18.4685 10.7231L17.6819 10.1137L15.5985 9.70923L15.7712 10.7231H18.4685ZM14.787 9.55164L13.2601 9.25516L13.5098 10.723H14.9866L14.787 9.55164ZM12.4487 9.09763L10.9372 8.80418L11.2642 10.723H12.7253L12.4487 9.09763ZM10.1257 8.64666L8.699 8.36957C8.68707 8.42964 8.67315 8.49474 8.65672 8.56403L9.0241 10.7231H10.4796L10.1257 8.64666ZM8.10796 9.94951C7.94831 10.2184 7.75044 10.4836 7.50526 10.7231H8.23958L8.10796 9.94951ZM6.46737 10.5456C7.4664 9.95763 7.82018 8.79702 7.93742 8.22172L5.41376 7.73168L6.46737 10.5456ZM16.8146 1.34173H5.68743L4.97438 5.44243L8.09133 6.03076C7.90867 4.48659 6.90359 3.27507 6.89276 3.26218L6.80118 3.15402V1.65897H16.4285L17.4745 7.80187L17.9857 7.89835L16.8146 1.34173ZM16.6639 7.64879L15.7757 2.43234H14.3599L15.2009 7.37261L16.6639 7.64879ZM13.5753 2.43241H12.0978L12.8639 6.93162L14.3903 7.21973L13.5753 2.43241ZM11.3132 2.43241H9.85232L10.5442 6.49379L12.0533 6.77861L11.3132 2.43241ZM9.06767 2.43241H7.57461V2.87726C7.87026 3.26289 8.77215 4.56142 8.88211 6.18003L9.73347 6.34072L9.06767 2.43241ZM24.2036 15.8269H29.9209V15.1862L24.8626 11.9434H24.2036V15.8269ZM23.4302 14.9574V14.0233L22.6853 13.5771V14.5111L23.4302 14.9574ZM21.9119 11.4741L18.3038 8.74546L4.84187 6.20453L5.09562 6.88212L17.9197 9.37201L18.01 9.38948L21.2144 11.8717V15.6208H21.912V11.4741H21.9119ZM20.4409 15.6208V12.2509L19.4671 11.4965H6.48987C6.38391 11.827 6.15549 12.1108 5.84186 12.2826C4.9301 12.782 4.35299 13.722 4.31296 14.7551L4.57445 14.9565C4.74731 13.3929 6.07595 12.1726 7.68489 12.1726C9.12723 12.1726 10.3441 13.1535 10.7052 14.4831H14.1176C14.4788 13.1534 15.6956 12.1724 17.138 12.1724C18.8638 12.1724 20.2679 13.5765 20.2679 15.3024C20.2679 15.4099 20.2625 15.5161 20.2518 15.6208H20.4409ZM17.1381 17.6588C18.4374 17.6588 19.4946 16.6017 19.4946 15.3023C19.4946 14.003 18.4375 12.9458 17.1381 12.9458C15.8387 12.9458 14.7816 14.0029 14.7816 15.3023C14.7816 16.6017 15.8387 17.6588 17.1381 17.6588ZM14.0093 15.2565H10.8136C10.8138 15.2719 10.8148 15.2871 10.8148 15.3025C10.8148 15.4093 10.8078 15.5154 10.7971 15.6209H14.0243C14.0137 15.5161 14.0082 15.4099 14.0082 15.3024C14.0082 15.287 14.0091 15.2719 14.0093 15.2565ZM5.34905 15.6157L5.36162 15.6961C5.37232 15.7645 5.38714 15.8338 5.40699 15.9083C5.68053 16.9391 6.61723 17.6589 7.68489 17.6589C8.75256 17.6589 9.68919 16.9391 9.9628 15.9079C10.0149 15.7124 10.0414 15.5087 10.0414 15.3025C10.0414 14.0031 8.98427 12.9459 7.68489 12.9459C6.38552 12.9459 5.32836 14.003 5.32836 15.3025C5.32842 15.4069 5.33532 15.5119 5.34905 15.6157ZM3.53675 15.6209H4.16949L3.35326 14.9924L3.53675 15.6209ZM2.20496 13.132L3.59618 14.2032C3.79489 13.1101 4.47526 12.1493 5.47035 11.6042C5.663 11.4987 5.78275 11.2967 5.78275 11.0769V11.0314C5.78275 10.9592 5.76993 10.8881 5.74453 10.8205L3.97072 6.08387H2.20496V13.132ZM1.07941 12.8917H1.43126V12.0092H1.07941V12.8917ZM1.43126 11.2358V7.62417H1.07941V11.2358H1.43126Z" fill="#373737"/>
<path d="M4.14965 10.666H4.88184V11.3982H4.14965V10.666Z" fill="#373737"/>
<path d="M2.80108 6.54492H3.5332V7.27704H2.80108V6.54492Z" fill="#373737"/>
</svg>
