<svg width="9" height="9" viewBox="0 0 9 9" fill="none" xmlns="http://www.w3.org/2000/svg">
<path d="M8.41953 3.05418C8.39048 2.96475 8.3132 2.89957 8.22015 2.88606L5.60631 2.50623L4.43733 0.137689C4.39573 0.0533727 4.30985 0 4.21583 0C4.1218 0 4.03594 0.0533727 3.99432 0.137689L2.82529 2.50623L0.211496 2.88606C0.118468 2.89957 0.0411513 2.96475 0.0121018 3.05417C-0.0169642 3.14361 0.00727667 3.24177 0.0746142 3.3074L1.96593 5.15105L1.51951 7.75436C1.50361 7.84704 1.54171 7.94068 1.61778 7.99596C1.66081 8.02722 1.71178 8.04313 1.76299 8.04313C1.80232 8.04313 1.84178 8.03376 1.87791 8.01475L4.21582 6.78561L6.55363 8.01474C6.63687 8.05849 6.73771 8.05121 6.81377 7.99594C6.88984 7.94068 6.92796 7.84701 6.91207 7.75433L6.46551 5.15105L8.35704 3.30738C8.42436 3.24177 8.44862 3.14361 8.41953 3.05418Z" fill="#FFA011"/>
</svg>
