<svg width="17" height="17" viewBox="0 0 17 17" fill="none" xmlns="http://www.w3.org/2000/svg">
<path d="M8.5 14.875C12.0208 14.875 14.875 12.0208 14.875 8.5C14.875 4.97918 12.0208 2.125 8.5 2.125C4.97918 2.125 2.125 4.97918 2.125 8.5C2.125 12.0208 4.97918 14.875 8.5 14.875Z" stroke="#757575" stroke-width="2" stroke-linecap="round" stroke-linejoin="round"/>
<path d="M8.50065 9.91634C9.28305 9.91634 9.91732 9.28208 9.91732 8.49967C9.91732 7.71727 9.28305 7.08301 8.50065 7.08301C7.71825 7.08301 7.08398 7.71727 7.08398 8.49967C7.08398 9.28208 7.71825 9.91634 8.50065 9.91634Z" stroke="#757575" stroke-width="2" stroke-linecap="round" stroke-linejoin="round"/>
<path d="M8.5 9.91699V14.8753" stroke="#757575" stroke-width="2" stroke-linecap="round" stroke-linejoin="round"/>
<path d="M7.08398 8.49967L2.30273 7.08301" stroke="#757575" stroke-width="2" stroke-linecap="round" stroke-linejoin="round"/>
<path d="M9.91602 8.49967L14.6973 7.08301" stroke="#757575" stroke-width="2" stroke-linecap="round" stroke-linejoin="round"/>
</svg>
